G04*
G04 #@! TF.GenerationSoftware,Altium Limited,Altium Designer,20.2.3 (150)*
G04*
G04 Layer_Color=65535*
%FSLAX25Y25*%
%MOIN*%
G70*
G04*
G04 #@! TF.SameCoordinates,F15F1335-3D0F-4216-8B18-0C41FCBFB515*
G04*
G04*
G04 #@! TF.FilePolarity,Positive*
G04*
G01*
G75*
%ADD10C,0.00394*%
%ADD11C,0.01181*%
%ADD12C,0.00787*%
%ADD13C,0.01000*%
D10*
X20366Y186520D02*
G03*
X20366Y186126I0J-197D01*
G01*
D02*
G03*
X20366Y186520I0J197D01*
G01*
X123055Y60287D02*
G03*
X123449Y60287I197J0D01*
G01*
D02*
G03*
X123055Y60287I-197J0D01*
G01*
X74354Y274213D02*
G03*
X74748Y274213I197J0D01*
G01*
D02*
G03*
X74354Y274213I-197J0D01*
G01*
X142633Y72219D02*
G03*
X142619Y88771I6017J8281D01*
G01*
X199059Y67059D02*
X218941D01*
Y266941D01*
X199059D02*
X218941D01*
X199059Y67059D02*
Y266941D01*
X141421Y265138D02*
Y287500D01*
Y265138D02*
X181579D01*
Y288130D01*
X159701Y241500D02*
Y250500D01*
X141299D02*
X159701D01*
X141299Y241500D02*
Y250500D01*
Y241500D02*
X159701D01*
X142626Y72224D02*
Y88776D01*
D11*
X194433Y72000D02*
G03*
X195220Y72000I394J0D01*
G01*
D02*
G03*
X194433Y72000I-394J0D01*
G01*
D12*
X138390Y277500D02*
G03*
X138784Y277500I197J0D01*
G01*
D02*
G03*
X138390Y277500I-197J0D01*
G01*
X39504Y237000D02*
G03*
X39110Y237000I-197J0D01*
G01*
D02*
G03*
X39504Y237000I197J0D01*
G01*
D02*
G03*
X39110Y237000I-197J0D01*
G01*
X15366Y189000D02*
Y209000D01*
Y189000D02*
X25366D01*
Y209000D01*
X15366D02*
X25366D01*
X36319Y162330D02*
X38681D01*
X15366Y159180D02*
Y169810D01*
X23634D01*
Y159180D02*
Y169810D01*
X36319Y133409D02*
X38681D01*
X15366Y130260D02*
Y140890D01*
X23634D01*
Y130260D02*
Y140890D01*
X123252Y235500D02*
Y240500D01*
X83252Y235500D02*
X123252D01*
X83252D02*
Y245500D01*
X118252D01*
X65500Y256142D02*
Y291142D01*
X55500D02*
X65500D01*
X55500Y251142D02*
Y291142D01*
Y251142D02*
X60500D01*
X55500Y43358D02*
Y78358D01*
Y43358D02*
X65500D01*
Y83358D01*
X60500D02*
X65500D01*
X121480Y43358D02*
Y75642D01*
X74551D02*
X121480D01*
X74551Y43358D02*
Y75642D01*
Y43358D02*
X121480D01*
X4858Y80624D02*
X29059D01*
X4858D02*
Y89824D01*
X33260D01*
Y85226D02*
Y89824D01*
X83252Y94000D02*
Y99000D01*
X123252D01*
Y89000D02*
Y99000D01*
X88252Y89000D02*
X123252D01*
X76323Y291142D02*
X123252D01*
Y258858D02*
Y291142D01*
X76323Y258858D02*
X123252D01*
X76323D02*
Y291142D01*
X4858Y229520D02*
Y259520D01*
X37142D01*
Y229520D02*
Y259520D01*
X4858Y229520D02*
X37142D01*
X170201Y47961D02*
Y52559D01*
X141799D02*
X170201D01*
X141799Y43358D02*
Y52559D01*
Y43358D02*
X166000D01*
D13*
X64000Y138181D02*
Y142116D01*
X65968D01*
X66624Y141460D01*
Y140148D01*
X65968Y139492D01*
X64000D01*
X65312D02*
X66624Y138181D01*
X67936D02*
Y142116D01*
X69904D01*
X70560Y141460D01*
Y140148D01*
X69904Y139492D01*
X67936D01*
X71872Y138181D02*
X73183D01*
X72527D01*
Y140804D01*
X71872D01*
X79087Y142116D02*
Y138181D01*
Y140148D01*
X81711D01*
Y142116D01*
Y138181D01*
X83023D02*
Y140804D01*
X84335Y142116D01*
X85647Y140804D01*
Y138181D01*
Y140148D01*
X83023D01*
X86958Y142116D02*
X89582D01*
X88270D01*
Y138181D01*
X64000Y131058D02*
Y134993D01*
X66624Y131058D01*
Y134993D01*
X67936D02*
X70560D01*
X69248D01*
Y131058D01*
X71872Y134993D02*
Y131714D01*
X72527Y131058D01*
X73839D01*
X74495Y131714D01*
Y134993D01*
X79743D02*
Y131058D01*
X81711D01*
X82367Y131714D01*
Y132370D01*
X81711Y133026D01*
X79743D01*
X81711D01*
X82367Y133681D01*
Y134337D01*
X81711Y134993D01*
X79743D01*
X83679D02*
X84991D01*
X84335D01*
Y131058D01*
X83679D01*
X84991D01*
X86958D02*
Y134993D01*
X88270Y133681D01*
X89582Y134993D01*
Y131058D01*
X93518Y134993D02*
X90894D01*
Y131058D01*
X93518D01*
X90894Y133026D02*
X92206D01*
X101390Y134993D02*
X98766D01*
Y133026D01*
X100078D01*
X98766D01*
Y131058D01*
X102701D02*
X104013D01*
X103357D01*
Y133681D01*
X102701D01*
X105981Y131058D02*
Y133681D01*
X107949D01*
X108605Y133026D01*
Y131058D01*
X110573Y133681D02*
X111885D01*
X112541Y133026D01*
Y131058D01*
X110573D01*
X109917Y131714D01*
X110573Y132370D01*
X112541D01*
X113853Y131058D02*
X115165D01*
X114509D01*
Y134993D01*
X113853D01*
X64000Y127871D02*
Y123935D01*
X65968D01*
X66624Y124591D01*
Y127215D01*
X65968Y127871D01*
X64000D01*
X67936Y123935D02*
Y127871D01*
X69904D01*
X70560Y127215D01*
Y125903D01*
X69904Y125247D01*
X67936D01*
X74495Y123935D02*
X71872D01*
X74495Y126559D01*
Y127215D01*
X73839Y127871D01*
X72527D01*
X71872Y127215D01*
X82367Y123935D02*
X79743D01*
X82367Y126559D01*
Y127215D01*
X81711Y127871D01*
X80399D01*
X79743Y127215D01*
X83679D02*
X84335Y127871D01*
X85647D01*
X86303Y127215D01*
Y124591D01*
X85647Y123935D01*
X84335D01*
X83679Y124591D01*
Y127215D01*
X90238Y123935D02*
X87614D01*
X90238Y126559D01*
Y127215D01*
X89582Y127871D01*
X88270D01*
X87614Y127215D01*
X94174Y123935D02*
X91550D01*
X94174Y126559D01*
Y127215D01*
X93518Y127871D01*
X92206D01*
X91550Y127215D01*
X95486Y123935D02*
Y124591D01*
X96142D01*
Y123935D01*
X95486D01*
X98766D02*
X100078D01*
X99422D01*
Y127871D01*
X98766Y127215D01*
X102046Y123935D02*
X103357D01*
X102701D01*
Y127871D01*
X102046Y127215D01*
X105325Y123935D02*
Y124591D01*
X105981D01*
Y123935D01*
X105325D01*
X108605Y127215D02*
X109261Y127871D01*
X110573D01*
X111229Y127215D01*
Y126559D01*
X109917Y125247D01*
Y124591D02*
Y123935D01*
X66624Y120092D02*
X65968Y120748D01*
X64656D01*
X64000Y120092D01*
Y117468D01*
X64656Y116812D01*
X65968D01*
X66624Y117468D01*
X68592Y116812D02*
X69904D01*
X70560Y117468D01*
Y118780D01*
X69904Y119436D01*
X68592D01*
X67936Y118780D01*
Y117468D01*
X68592Y116812D01*
X71872Y115500D02*
Y119436D01*
X73839D01*
X74495Y118780D01*
Y117468D01*
X73839Y116812D01*
X71872D01*
X75807Y119436D02*
Y117468D01*
X76463Y116812D01*
X78431D01*
Y116156D01*
X77775Y115500D01*
X77119D01*
X78431Y116812D02*
Y119436D01*
X79743Y116812D02*
X81055D01*
X80399D01*
Y120748D01*
X79743D01*
X84991Y116812D02*
X83679D01*
X83023Y117468D01*
Y118780D01*
X83679Y119436D01*
X84991D01*
X85647Y118780D01*
Y118124D01*
X83023D01*
X87614Y116812D02*
Y120092D01*
Y118780D01*
X86958D01*
X88270D01*
X87614D01*
Y120092D01*
X88270Y120748D01*
X90894Y120092D02*
Y119436D01*
X90238D01*
X91550D01*
X90894D01*
Y117468D01*
X91550Y116812D01*
X98766D02*
X97454Y118124D01*
Y119436D01*
X98766Y120748D01*
X100734Y120092D02*
X101390Y120748D01*
X102701D01*
X103357Y120092D01*
Y119436D01*
X102046Y118124D01*
Y117468D02*
Y116812D01*
X104669D02*
X105981Y118124D01*
Y119436D01*
X104669Y120748D01*
X114509Y116812D02*
X111885D01*
X114509Y119436D01*
Y120092D01*
X113853Y120748D01*
X112541D01*
X111885Y120092D01*
X115821D02*
X116477Y120748D01*
X117788D01*
X118444Y120092D01*
Y117468D01*
X117788Y116812D01*
X116477D01*
X115821Y117468D01*
Y120092D01*
X122380Y116812D02*
X119756D01*
X122380Y119436D01*
Y120092D01*
X121724Y120748D01*
X120412D01*
X119756Y120092D01*
X126316Y116812D02*
X123692D01*
X126316Y119436D01*
Y120092D01*
X125660Y120748D01*
X124348D01*
X123692Y120092D01*
X131563Y120748D02*
Y116812D01*
X132875Y118124D01*
X134187Y116812D01*
Y120748D01*
X135499Y116812D02*
X136811D01*
X136155D01*
Y119436D01*
X135499D01*
X138779Y116812D02*
X140091D01*
X139435D01*
Y120748D01*
X138779D01*
X144683D02*
Y116812D01*
X142715D01*
X142059Y117468D01*
Y118780D01*
X142715Y119436D01*
X144683D01*
X146651Y116812D02*
Y120092D01*
Y118780D01*
X145995D01*
X147307D01*
X146651D01*
Y120092D01*
X147307Y120748D01*
X149930Y116812D02*
X151242D01*
X151898Y117468D01*
Y118780D01*
X151242Y119436D01*
X149930D01*
X149274Y118780D01*
Y117468D01*
X149930Y116812D01*
X153866D02*
X155178D01*
X155834Y117468D01*
Y118780D01*
X155178Y119436D01*
X153866D01*
X153210Y118780D01*
Y117468D01*
X153866Y116812D01*
X157802Y120092D02*
Y119436D01*
X157146D01*
X158458D01*
X157802D01*
Y117468D01*
X158458Y116812D01*
X160426Y120748D02*
Y116812D01*
X161738Y118124D01*
X163049Y116812D01*
Y120748D01*
X72624Y61436D02*
X70000D01*
Y59468D01*
X71312Y60124D01*
X71968D01*
X72624Y59468D01*
Y58156D01*
X71968Y57500D01*
X70656D01*
X70000Y58156D01*
X128124Y60936D02*
X126812Y60280D01*
X125500Y58968D01*
Y57656D01*
X126156Y57000D01*
X127468D01*
X128124Y57656D01*
Y58312D01*
X127468Y58968D01*
X125500D01*
X128124Y276436D02*
X125500D01*
Y274468D01*
X126812Y275124D01*
X127468D01*
X128124Y274468D01*
Y273156D01*
X127468Y272500D01*
X126156D01*
X125500Y273156D01*
X72624Y276936D02*
X71312Y276280D01*
X70000Y274968D01*
Y273656D01*
X70656Y273000D01*
X71968D01*
X72624Y273656D01*
Y274312D01*
X71968Y274968D01*
X70000D01*
X69795Y287222D02*
X69139Y287878D01*
X67827D01*
X67171Y287222D01*
Y284598D01*
X67827Y283942D01*
X69139D01*
X69795Y284598D01*
Y285910D01*
X68483D01*
X21795Y265222D02*
X21139Y265878D01*
X19827D01*
X19171Y265222D01*
Y262598D01*
X19827Y261942D01*
X21139D01*
X21795Y262598D01*
Y263910D01*
X20483D01*
X13624Y194780D02*
X12968Y195436D01*
X11656D01*
X11000Y194780D01*
Y192156D01*
X11656Y191500D01*
X12968D01*
X13624Y192156D01*
Y193468D01*
X12312D01*
X139258Y247237D02*
X138602Y247893D01*
X137290D01*
X136635Y247237D01*
Y244614D01*
X137290Y243958D01*
X138602D01*
X139258Y244614D01*
Y245925D01*
X137946D01*
X138758Y282737D02*
X138102Y283393D01*
X136790D01*
X136135Y282737D01*
Y280114D01*
X136790Y279458D01*
X138102D01*
X138758Y280114D01*
Y281425D01*
X137446D01*
X8124Y77780D02*
X7468Y78436D01*
X6156D01*
X5500Y77780D01*
Y75156D01*
X6156Y74500D01*
X7468D01*
X8124Y75156D01*
Y76468D01*
X6812D01*
X70124Y46780D02*
X69468Y47436D01*
X68156D01*
X67500Y46780D01*
Y44156D01*
X68156Y43500D01*
X69468D01*
X70124Y44156D01*
Y45468D01*
X68812D01*
X139624Y47280D02*
X138968Y47936D01*
X137656D01*
X137000Y47280D01*
Y44656D01*
X137656Y44000D01*
X138968D01*
X139624Y44656D01*
Y45968D01*
X138312D01*
X37596Y275501D02*
Y281499D01*
X40595D01*
X41595Y280499D01*
Y278500D01*
X40595Y277500D01*
X37596D01*
X39595D02*
X41595Y275501D01*
X43594Y276501D02*
X44594Y275501D01*
X46593D01*
X47593Y276501D01*
Y280499D01*
X46593Y281499D01*
X44594D01*
X43594Y280499D01*
Y279500D01*
X44594Y278500D01*
X47593D01*
X37549Y257001D02*
Y262999D01*
X40548D01*
X41548Y261999D01*
Y260000D01*
X40548Y259000D01*
X37549D01*
X39548D02*
X41548Y257001D01*
X43547Y262999D02*
X47546D01*
Y261999D01*
X43547Y258001D01*
Y257001D01*
X19502Y180999D02*
X18503Y181999D01*
X16503D01*
X15504Y180999D01*
Y177001D01*
X16503Y176001D01*
X18503D01*
X19502Y177001D01*
X21502Y176001D02*
Y181999D01*
X25500Y176001D01*
Y181999D01*
X27500Y176001D02*
Y180000D01*
X29499Y181999D01*
X31498Y180000D01*
Y176001D01*
Y179000D01*
X27500D01*
X37496Y181999D02*
X35497Y180999D01*
X33498Y179000D01*
Y177001D01*
X34497Y176001D01*
X36497D01*
X37496Y177001D01*
Y178000D01*
X36497Y179000D01*
X33498D01*
X43903Y196001D02*
Y201999D01*
X46902D01*
X47902Y200999D01*
Y199000D01*
X46902Y198000D01*
X43903D01*
X45903D02*
X47902Y196001D01*
X52900D02*
Y201999D01*
X49901Y199000D01*
X53900D01*
X44502Y156481D02*
Y162479D01*
X47501D01*
X48501Y161479D01*
Y159479D01*
X47501Y158480D01*
X44502D01*
X46501D02*
X48501Y156481D01*
X50500D02*
X52500D01*
X51500D01*
Y162479D01*
X50500Y161479D01*
X55499Y156481D02*
X57498D01*
X56498D01*
Y162479D01*
X55499Y161479D01*
X16005Y152419D02*
Y146421D01*
X20004D01*
X26002Y152419D02*
X22004D01*
Y146421D01*
X26002D01*
X22004Y149420D02*
X24003D01*
X28002Y152419D02*
Y146421D01*
X31001D01*
X32000Y147421D01*
Y151420D01*
X31001Y152419D01*
X28002D01*
X34000Y145422D02*
X37998D01*
X43996Y152419D02*
X41997Y151420D01*
X39998Y149420D01*
Y147421D01*
X40997Y146421D01*
X42997D01*
X43996Y147421D01*
Y148421D01*
X42997Y149420D01*
X39998D01*
X45996Y152419D02*
Y148421D01*
X47995Y146421D01*
X49995Y148421D01*
Y152419D01*
X44502Y128761D02*
Y134759D01*
X47502D01*
X48501Y133759D01*
Y131760D01*
X47502Y130760D01*
X44502D01*
X46502D02*
X48501Y128761D01*
X50501D02*
X52500D01*
X51500D01*
Y134759D01*
X50501Y133759D01*
X55499D02*
X56499Y134759D01*
X58498D01*
X59498Y133759D01*
Y129761D01*
X58498Y128761D01*
X56499D01*
X55499Y129761D01*
Y133759D01*
X16507Y121999D02*
Y116001D01*
X20505D01*
X26503Y121999D02*
X22504D01*
Y116001D01*
X26503D01*
X22504Y119000D02*
X24504D01*
X28503Y121999D02*
Y116001D01*
X31502D01*
X32501Y117000D01*
Y120999D01*
X31502Y121999D01*
X28503D01*
X34501Y115001D02*
X38499D01*
X44497Y120999D02*
X43498Y121999D01*
X41498D01*
X40499Y120999D01*
Y117000D01*
X41498Y116001D01*
X43498D01*
X44497Y117000D01*
X46497Y121999D02*
Y117000D01*
X47496Y116001D01*
X49496D01*
X50495Y117000D01*
Y121999D01*
X56494Y120999D02*
X55494Y121999D01*
X53495D01*
X52495Y120999D01*
Y120000D01*
X53495Y119000D01*
X55494D01*
X56494Y118000D01*
Y117000D01*
X55494Y116001D01*
X53495D01*
X52495Y117000D01*
X87502Y229999D02*
X86503Y230999D01*
X84503D01*
X83504Y229999D01*
Y226001D01*
X84503Y225001D01*
X86503D01*
X87502Y226001D01*
X89502Y225001D02*
Y230999D01*
X93500Y225001D01*
Y230999D01*
X95500Y225001D02*
Y229000D01*
X97499Y230999D01*
X99498Y229000D01*
Y225001D01*
Y228000D01*
X95500D01*
X105497Y230999D02*
X101498D01*
Y228000D01*
X103497Y229000D01*
X104497D01*
X105497Y228000D01*
Y226001D01*
X104497Y225001D01*
X102497D01*
X101498Y226001D01*
X59002Y245999D02*
X58003Y246999D01*
X56003D01*
X55004Y245999D01*
Y242001D01*
X56003Y241001D01*
X58003D01*
X59002Y242001D01*
X61002Y241001D02*
Y246999D01*
X65000Y241001D01*
Y246999D01*
X70998Y245999D02*
X69999Y246999D01*
X67999D01*
X67000Y245999D01*
Y245000D01*
X67999Y244000D01*
X69999D01*
X70998Y243000D01*
Y242001D01*
X69999Y241001D01*
X67999D01*
X67000Y242001D01*
X72998Y245999D02*
X73997Y246999D01*
X75997D01*
X76996Y245999D01*
Y245000D01*
X75997Y244000D01*
X74997D01*
X75997D01*
X76996Y243000D01*
Y242001D01*
X75997Y241001D01*
X73997D01*
X72998Y242001D01*
X59002Y93499D02*
X58003Y94499D01*
X56003D01*
X55004Y93499D01*
Y89501D01*
X56003Y88501D01*
X58003D01*
X59002Y89501D01*
X61002Y88501D02*
Y94499D01*
X65000Y88501D01*
Y94499D01*
X70998Y93499D02*
X69999Y94499D01*
X67999D01*
X67000Y93499D01*
Y92500D01*
X67999Y91500D01*
X69999D01*
X70998Y90500D01*
Y89501D01*
X69999Y88501D01*
X67999D01*
X67000Y89501D01*
X76996Y88501D02*
X72998D01*
X76996Y92500D01*
Y93499D01*
X75997Y94499D01*
X73997D01*
X72998Y93499D01*
X103502Y83999D02*
X102503Y84999D01*
X100503D01*
X99504Y83999D01*
Y80001D01*
X100503Y79001D01*
X102503D01*
X103502Y80001D01*
X105502Y79001D02*
Y84999D01*
X109500Y79001D01*
Y84999D01*
X111500Y79001D02*
Y83000D01*
X113499Y84999D01*
X115498Y83000D01*
Y79001D01*
Y82000D01*
X111500D01*
X121496Y79001D02*
X117498D01*
X121496Y83000D01*
Y83999D01*
X120497Y84999D01*
X118497D01*
X117498Y83999D01*
X38247Y51335D02*
Y57333D01*
X41246D01*
X42246Y56333D01*
Y54334D01*
X41246Y53334D01*
X38247D01*
X40247D02*
X42246Y51335D01*
X44245Y56333D02*
X45245Y57333D01*
X47244D01*
X48244Y56333D01*
Y55333D01*
X47244Y54334D01*
X48244Y53334D01*
Y52334D01*
X47244Y51335D01*
X45245D01*
X44245Y52334D01*
Y53334D01*
X45245Y54334D01*
X44245Y55333D01*
Y56333D01*
X45245Y54334D02*
X47244D01*
X38247Y88600D02*
Y94598D01*
X41246D01*
X42246Y93598D01*
Y91599D01*
X41246Y90599D01*
X38247D01*
X40247D02*
X42246Y88600D01*
X48244Y94598D02*
X44245D01*
Y91599D01*
X46245Y92599D01*
X47244D01*
X48244Y91599D01*
Y89600D01*
X47244Y88600D01*
X45245D01*
X44245Y89600D01*
X38247Y69967D02*
Y75965D01*
X41246D01*
X42246Y74966D01*
Y72966D01*
X41246Y71967D01*
X38247D01*
X40247D02*
X42246Y69967D01*
X48244Y75965D02*
X46245Y74966D01*
X44245Y72966D01*
Y70967D01*
X45245Y69967D01*
X47244D01*
X48244Y70967D01*
Y71967D01*
X47244Y72966D01*
X44245D01*
X8502Y99725D02*
X7502Y100725D01*
X5503D01*
X4503Y99725D01*
Y95727D01*
X5503Y94727D01*
X7502D01*
X8502Y95727D01*
X10501Y94727D02*
Y100725D01*
X14500Y94727D01*
Y100725D01*
X20498Y99725D02*
X19498Y100725D01*
X17499D01*
X16499Y99725D01*
Y98726D01*
X17499Y97726D01*
X19498D01*
X20498Y96726D01*
Y95727D01*
X19498Y94727D01*
X17499D01*
X16499Y95727D01*
X22497Y94727D02*
X24497D01*
X23497D01*
Y100725D01*
X22497Y99725D01*
X103502Y107999D02*
X102503Y108999D01*
X100503D01*
X99504Y107999D01*
Y104001D01*
X100503Y103001D01*
X102503D01*
X103502Y104001D01*
X105502Y103001D02*
Y108999D01*
X109500Y103001D01*
Y108999D01*
X111500Y103001D02*
Y107000D01*
X113499Y108999D01*
X115498Y107000D01*
Y103001D01*
Y106000D01*
X111500D01*
X120497Y103001D02*
Y108999D01*
X117498Y106000D01*
X121496D01*
X188501Y62999D02*
X187502Y63999D01*
X185502D01*
X184503Y62999D01*
Y59001D01*
X185502Y58001D01*
X187502D01*
X188501Y59001D01*
X190501Y58001D02*
Y63999D01*
X194499Y58001D01*
Y63999D01*
X196499Y62999D02*
X197498Y63999D01*
X199498D01*
X200497Y62999D01*
Y59001D01*
X199498Y58001D01*
X197498D01*
X196499Y59001D01*
Y62999D01*
X163002Y260999D02*
X162003Y261999D01*
X160003D01*
X159004Y260999D01*
Y257001D01*
X160003Y256001D01*
X162003D01*
X163002Y257001D01*
X165002Y256001D02*
Y261999D01*
X169000Y256001D01*
Y261999D01*
X171000Y256001D02*
Y260000D01*
X172999Y261999D01*
X174998Y260000D01*
Y256001D01*
Y259000D01*
X171000D01*
X176998Y257001D02*
X177997Y256001D01*
X179997D01*
X180997Y257001D01*
Y260999D01*
X179997Y261999D01*
X177997D01*
X176998Y260999D01*
Y260000D01*
X177997Y259000D01*
X180997D01*
X137502Y260999D02*
X136503Y261999D01*
X134503D01*
X133504Y260999D01*
Y257001D01*
X134503Y256001D01*
X136503D01*
X137502Y257001D01*
X139502Y256001D02*
Y261999D01*
X143500Y256001D01*
Y261999D01*
X145500Y256001D02*
Y260000D01*
X147499Y261999D01*
X149498Y260000D01*
Y256001D01*
Y259000D01*
X145500D01*
X151498Y260999D02*
X152497Y261999D01*
X154497D01*
X155497Y260999D01*
Y260000D01*
X154497Y259000D01*
X155497Y258000D01*
Y257001D01*
X154497Y256001D01*
X152497D01*
X151498Y257001D01*
Y258000D01*
X152497Y259000D01*
X151498Y260000D01*
Y260999D01*
X152497Y259000D02*
X154497D01*
X5699Y271698D02*
X4699Y272698D01*
X2700D01*
X1700Y271698D01*
Y267700D01*
X2700Y266700D01*
X4699D01*
X5699Y267700D01*
X7698Y266700D02*
Y272698D01*
X11697Y266700D01*
Y272698D01*
X13696Y266700D02*
X15696D01*
X14696D01*
Y272698D01*
X13696Y271698D01*
X169100Y92600D02*
Y98598D01*
X172099D01*
X173099Y97598D01*
Y95599D01*
X172099Y94599D01*
X169100D01*
X171099D02*
X173099Y92600D01*
X175098D02*
X177097D01*
X176098D01*
Y98598D01*
X175098Y97598D01*
X169100Y75100D02*
Y81098D01*
X172099D01*
X173099Y80098D01*
Y78099D01*
X172099Y77099D01*
X169100D01*
X171099D02*
X173099Y75100D01*
X175098Y80098D02*
X176098Y81098D01*
X178097D01*
X179097Y80098D01*
Y76100D01*
X178097Y75100D01*
X176098D01*
X175098Y76100D01*
Y80098D01*
X146448Y95100D02*
Y99098D01*
X145449Y100098D01*
X143449D01*
X142450Y99098D01*
Y95100D01*
X143449Y94100D01*
X145449D01*
X144449Y96099D02*
X146448Y94100D01*
X145449D02*
X146448Y95100D01*
X148448Y99098D02*
X149447Y100098D01*
X151447D01*
X152446Y99098D01*
Y95100D01*
X151447Y94100D01*
X149447D01*
X148448Y95100D01*
Y99098D01*
X145699Y61659D02*
X144699Y62659D01*
X142700D01*
X141700Y61659D01*
Y57660D01*
X142700Y56661D01*
X144699D01*
X145699Y57660D01*
X147698Y56661D02*
Y62659D01*
X151697Y56661D01*
Y62659D01*
X153696Y56661D02*
Y60659D01*
X155695Y62659D01*
X157695Y60659D01*
Y56661D01*
Y59660D01*
X153696D01*
X159694Y61659D02*
X160694Y62659D01*
X162693D01*
X163693Y61659D01*
Y57660D01*
X162693Y56661D01*
X160694D01*
X159694Y57660D01*
Y61659D01*
X103502Y254499D02*
X102503Y255499D01*
X100503D01*
X99504Y254499D01*
Y250501D01*
X100503Y249501D01*
X102503D01*
X103502Y250501D01*
X105502Y249501D02*
Y255499D01*
X109500Y249501D01*
Y255499D01*
X111500Y249501D02*
Y253500D01*
X113499Y255499D01*
X115498Y253500D01*
Y249501D01*
Y252500D01*
X111500D01*
X117498Y254499D02*
X118497Y255499D01*
X120497D01*
X121496Y254499D01*
Y253500D01*
X120497Y252500D01*
X119497D01*
X120497D01*
X121496Y251500D01*
Y250501D01*
X120497Y249501D01*
X118497D01*
X117498Y250501D01*
M02*
