M48
;Layer_Color=9474304
;FILE_FORMAT=2:5
INCH,LZ
;TYPE=PLATED
T1F00S00C0.02800
T2F00S00C0.03150
T3F00S00C0.03504
T4F00S00C0.03543
T5F00S00C0.03701
T6F00S00C0.03800
T7F00S00C0.03819
T8F00S00C0.04213
T9F00S00C0.04331
;TYPE=NON_PLATED
T10F00S00C0.05118
%
T01
X0009Y01347
X00494Y01313
X01804Y01379
X00514Y02395
X00447Y02605
T02
X00605Y0048358
Y0058358
Y0068358
Y0078358
X0088252Y0094
X0098252
X0108252
X0118252
Y02405
X0108252
X0098252
X0088252
X00605Y0256142
Y0266142
Y0276142
Y0286142
T03
X0020366Y0194
Y0204
T04
X0009059Y0085226
X0019059
X0029059
X0146Y0047961
X0156
X0166
T05
X014865Y00755
Y00855
X015365Y00805
T06
X01455Y0246
X01555
T07
X0204Y0072
X0214
Y0082
Y0092
Y0102
Y0112
Y0122
Y0132
Y0142
Y0152
X0204
Y0142
Y0132
Y0122
Y0112
Y0102
Y0092
Y0082
Y0162
X0214
Y0172
Y0182
Y0192
Y0202
Y0212
Y0222
Y0232
Y0242
Y0252
Y0262
X0204
Y0252
Y0242
Y0232
Y0222
Y0212
Y0202
Y0192
Y0182
Y0172
T08
X01565Y02775
X01665
X01765
X01465
T09
X0084Y00595
X0099
X0114
X0113803Y0275
X0098803
X0083803
X0021Y0252
Y0237
T10
X01665Y0286004
M30
