G04*
G04 #@! TF.GenerationSoftware,Altium Limited,Altium Designer,20.2.3 (150)*
G04*
G04 Layer_Color=16711935*
%FSLAX25Y25*%
%MOIN*%
G70*
G04*
G04 #@! TF.SameCoordinates,F15F1335-3D0F-4216-8B18-0C41FCBFB515*
G04*
G04*
G04 #@! TF.FilePolarity,Positive*
G04*
G01*
G75*
%ADD10C,0.00394*%
%ADD12C,0.00787*%
D10*
X46098Y285425D02*
Y288575D01*
X39996D02*
X46098D01*
X39996Y285425D02*
Y288575D01*
Y285425D02*
X46098D01*
Y266925D02*
Y270075D01*
X39996D02*
X46098D01*
X39996Y266925D02*
Y270075D01*
Y266925D02*
X46098D01*
X15366Y189098D02*
Y208902D01*
Y189098D02*
X25366D01*
Y208902D01*
X15366D02*
X25366D01*
X35827Y197996D02*
X38976D01*
Y204098D01*
X35827D02*
X38976D01*
X35827Y197996D02*
Y204098D01*
X35925Y165480D02*
X39075D01*
X35925Y159180D02*
Y165480D01*
Y159180D02*
X39075D01*
Y165480D01*
X20319Y166857D02*
X21961Y165216D01*
X17039Y166857D02*
X21961D01*
X17039Y158983D02*
Y166857D01*
Y158983D02*
X21961D01*
Y166857D01*
X35925Y136559D02*
X39075D01*
X35925Y130260D02*
Y136559D01*
Y130260D02*
X39075D01*
Y136559D01*
X20319Y137937D02*
X21961Y136295D01*
X17039Y137937D02*
X21961D01*
X17039Y130063D02*
Y137937D01*
Y130063D02*
X21961D01*
Y137937D01*
X83252Y245500D02*
X123252D01*
X83252Y235500D02*
Y245500D01*
Y235500D02*
X123252D01*
Y245500D01*
X55500Y251142D02*
X65500D01*
X55500D02*
Y291142D01*
X65500D01*
Y251142D02*
Y291142D01*
X55500Y83358D02*
X65500D01*
Y43358D02*
Y83358D01*
X55500Y43358D02*
X65500D01*
X55500D02*
Y83358D01*
X121480Y43358D02*
Y75642D01*
X74551D02*
X121480D01*
X74551Y43358D02*
Y75642D01*
Y43358D02*
X121480D01*
X39996Y43660D02*
Y46809D01*
Y43660D02*
X46098D01*
Y46809D01*
X39996D02*
X46098D01*
Y80925D02*
Y84075D01*
X39996D02*
X46098D01*
X39996Y80925D02*
Y84075D01*
Y80925D02*
X46098D01*
X39996Y62293D02*
Y65442D01*
Y62293D02*
X46098D01*
Y65442D01*
X39996D02*
X46098D01*
X4858Y89824D02*
X33260D01*
X4858Y80624D02*
Y89824D01*
Y80624D02*
X33260D01*
Y89824D01*
X83252Y89000D02*
X123252D01*
Y99000D01*
X83252D02*
X123252D01*
X83252Y89000D02*
Y99000D01*
X76323Y291142D02*
X123252D01*
Y258858D02*
Y291142D01*
X76323Y258858D02*
X123252D01*
X76323D02*
Y291142D01*
X37142Y229520D02*
Y259520D01*
X4858D02*
X37142D01*
X4858Y229520D02*
Y259520D01*
Y229520D02*
X37142D01*
X170902Y67425D02*
X177004D01*
X170902D02*
Y70575D01*
X177004D01*
Y67425D02*
Y70575D01*
X170201Y43358D02*
Y52559D01*
X141799Y43358D02*
X170201D01*
X141799D02*
Y52559D01*
X170201D01*
X170902Y88075D02*
X177004D01*
Y84925D02*
Y88075D01*
X170902Y84925D02*
X177004D01*
X170902D02*
Y88075D01*
D12*
X142633Y72219D02*
G03*
X142619Y88771I6017J8281D01*
G01*
X199059Y67059D02*
X218941D01*
Y266941D01*
X199059D02*
X218941D01*
X199059Y67059D02*
Y266941D01*
X181579Y265138D02*
Y288130D01*
X141421D02*
X181579D01*
X141421Y265138D02*
Y288130D01*
Y265138D02*
X181579D01*
X159701Y241500D02*
Y250500D01*
X141299D02*
X159701D01*
X141299Y241500D02*
Y250500D01*
Y241500D02*
X159701D01*
X142626Y72224D02*
Y88776D01*
M02*
