G04*
G04 #@! TF.GenerationSoftware,Altium Limited,Altium Designer,20.2.3 (150)*
G04*
G04 Layer_Physical_Order=2*
G04 Layer_Color=16711680*
%FSLAX25Y25*%
%MOIN*%
G70*
G04*
G04 #@! TF.SameCoordinates,F15F1335-3D0F-4216-8B18-0C41FCBFB515*
G04*
G04*
G04 #@! TF.FilePolarity,Positive*
G04*
G01*
G75*
%ADD13C,0.01000*%
%ADD37C,0.00800*%
%ADD38C,0.02000*%
%ADD39C,0.01500*%
%ADD40C,0.05693*%
%ADD41R,0.05693X0.05693*%
%ADD42C,0.04724*%
%ADD43R,0.04724X0.04724*%
%ADD44R,0.04724X0.04724*%
%ADD45C,0.06496*%
%ADD46C,0.05315*%
%ADD47R,0.05315X0.05315*%
%ADD48C,0.05941*%
%ADD49C,0.02559*%
%ADD50C,0.06319*%
%ADD51C,0.05909*%
%ADD52R,0.06496X0.06496*%
%ADD53C,0.05669*%
%ADD54C,0.05000*%
D13*
X214000Y262000D02*
Y265970D01*
Y262000D02*
X217970D01*
X214000Y258030D02*
Y262000D01*
X200029Y232000D02*
X204000D01*
X214000Y192000D02*
X217970D01*
X214000D02*
Y195970D01*
Y188030D02*
Y192000D01*
X204000Y212000D02*
X207970D01*
X204000D02*
Y215970D01*
Y208030D02*
Y212000D01*
X200029D02*
X204000D01*
X142341Y277500D02*
X146500D01*
X150659D01*
X146500D02*
Y281660D01*
Y273341D02*
Y277500D01*
X145500Y246000D02*
X149455D01*
X141545D02*
X145500D01*
X214000Y112000D02*
X217970D01*
X214000Y108029D02*
Y112000D01*
X204000Y162000D02*
X207970D01*
X204000Y158029D02*
Y162000D01*
X210030Y112000D02*
X214000D01*
X204000Y132000D02*
X207970D01*
X200029D02*
X204000D01*
Y88029D02*
Y92000D01*
Y95970D01*
Y92000D02*
X207970D01*
X200029D02*
X204000D01*
X148650Y85500D02*
X152484D01*
X148650D02*
Y89335D01*
Y81665D02*
Y85500D01*
X144815D02*
X148650D01*
X146000Y47961D02*
Y51618D01*
Y47961D02*
X149657D01*
X142342D02*
X146000D01*
Y44303D02*
Y47961D01*
X98803Y275000D02*
Y279248D01*
Y275000D02*
X103051D01*
X94555D02*
X98803D01*
X60500Y286142D02*
Y289504D01*
X57138Y286142D02*
X60500D01*
X63862D01*
X60500Y282780D02*
Y286142D01*
X21000Y252000D02*
Y256248D01*
Y252000D02*
X25248D01*
X21000Y247752D02*
Y252000D01*
X16752D02*
X21000D01*
X20366Y194000D02*
Y197846D01*
Y194000D02*
X24213D01*
X20366Y190154D02*
Y194000D01*
X16520D02*
X20366D01*
X99000Y59500D02*
Y63748D01*
Y59500D02*
X103248D01*
X99000Y55252D02*
Y59500D01*
X94752D02*
X99000D01*
X9059Y85226D02*
Y88884D01*
Y85226D02*
X12717D01*
X5401D02*
X9059D01*
Y81568D02*
Y85226D01*
X60500Y48358D02*
Y51720D01*
Y48358D02*
X63862D01*
X60500Y44996D02*
Y48358D01*
X57138D02*
X60500D01*
X98803Y275000D02*
X103551Y279748D01*
X144252D01*
X146500Y277500D01*
X155150Y92000D02*
X204000D01*
X148650Y85500D02*
X155150Y92000D01*
X166700Y134700D02*
X204000Y172000D01*
X53400Y134700D02*
X166700D01*
X52741Y135359D02*
X53400Y134700D01*
X9659Y135359D02*
X52741D01*
X9000Y134700D02*
X9659Y135359D01*
X88252Y94000D02*
X121252Y127000D01*
X209000D01*
X214000Y122000D01*
Y142000D02*
X218500Y137500D01*
Y120000D02*
Y137500D01*
X216000Y117500D02*
X218500Y120000D01*
X178300Y117500D02*
X216000D01*
X172400Y111600D02*
X178300Y117500D01*
X125852Y111600D02*
X172400D01*
X108252Y94000D02*
X125852Y111600D01*
X98252Y240500D02*
X106452Y232300D01*
X192900D01*
X198200Y227000D01*
X205529D01*
X210529Y222000D01*
X214000D01*
X210471Y255529D02*
X214000Y252000D01*
X210471Y255529D02*
Y257373D01*
X209373Y258471D02*
X210471Y257373D01*
X209373Y258471D02*
Y266627D01*
X198500Y277500D02*
X209373Y266627D01*
X176500Y277500D02*
X198500D01*
X179800Y122000D02*
X204000D01*
X171800Y114000D02*
X179800Y122000D01*
X111800Y114000D02*
X171800D01*
X103700Y105900D02*
X111800Y114000D01*
X103700Y92000D02*
Y105900D01*
X99176Y87476D02*
X103700Y92000D01*
X78724Y87476D02*
X99176D01*
X76800Y89400D02*
X78724Y87476D01*
X24900Y89400D02*
X76800D01*
X24900Y80000D02*
Y89400D01*
Y80000D02*
X36542Y68358D01*
X60500D01*
X208471Y247529D02*
X214000Y242000D01*
X208471Y247529D02*
Y256500D01*
X69100Y257200D02*
X208471Y256500D01*
X51400Y239500D02*
X69100Y257200D01*
X184500Y142000D02*
X204000D01*
X180400Y137900D02*
X184500Y142000D01*
X210471Y235529D02*
X214000Y232000D01*
X210471Y235529D02*
Y237373D01*
X209373Y238471D02*
X210471Y237373D01*
X209373Y238471D02*
Y243627D01*
X206400Y246600D02*
X209373Y243627D01*
X164100Y246600D02*
X206400D01*
X158000Y240500D02*
X164100Y246600D01*
X118252Y240500D02*
X158000D01*
X88252D02*
X94352Y246600D01*
X108000D01*
X114300Y240300D01*
Y236600D02*
Y240300D01*
Y236600D02*
X208371D01*
X208471Y236500D01*
Y228559D02*
Y236500D01*
Y228559D02*
X209500Y227529D01*
X216000D01*
X218500Y225029D01*
Y216500D02*
Y225029D01*
X214000Y212000D02*
X218500Y216500D01*
X44700Y240000D02*
Y260500D01*
Y240000D02*
X50100Y234600D01*
X74200D01*
X91600Y252000D01*
X204000D01*
X209500Y136500D02*
X214000Y132000D01*
X193888Y136500D02*
X209500D01*
X186588Y129200D02*
X193888Y136500D01*
X99600Y129200D02*
X186588D01*
X84300Y113900D02*
X99600Y129200D01*
X84300Y91000D02*
Y113900D01*
Y91000D02*
X85824Y89476D01*
X93728D01*
X98252Y94000D01*
X49400Y131300D02*
X166800D01*
X202000Y166500D01*
X206000D01*
X208500Y169000D01*
Y197500D01*
X204000Y202000D02*
X208500Y197500D01*
X64642Y262000D02*
X204000D01*
X60500Y266142D02*
X64642Y262000D01*
X60500Y286142D02*
X87661D01*
X98803Y275000D01*
X60500Y48358D02*
X87858D01*
X99000Y59500D01*
X110539Y47961D02*
X146000D01*
X99000Y59500D02*
X110539Y47961D01*
D37*
X212269Y257987D02*
G03*
X218371Y262000I1731J4013D01*
G01*
X212371Y257373D02*
G03*
X212269Y257987I-1900J0D01*
G01*
X212371Y257373D02*
G03*
X212269Y257987I-1900J0D01*
G01*
X218371Y252000D02*
G03*
X212560Y256127I-4371J0D01*
G01*
X212269Y237987D02*
G03*
X218371Y242000I1731J4013D01*
G01*
D02*
G03*
X212560Y246127I-4371J0D01*
G01*
X217189Y229011D02*
G03*
X218371Y232000I-3189J2989D01*
G01*
D02*
G03*
X212560Y236127I-4371J0D01*
G01*
X212371Y237373D02*
G03*
X212269Y237987I-1900J0D01*
G01*
X212371Y237373D02*
G03*
X212269Y237987I-1900J0D01*
G01*
X211273Y266627D02*
G03*
X210714Y267973I-1900J0D01*
G01*
X218371Y262000D02*
G03*
X211273Y265416I-4371J0D01*
G01*
Y266627D02*
G03*
X210717Y267970I-1900J0D01*
G01*
X210371Y249565D02*
G03*
X218371Y252000I3629J2435D01*
G01*
X207473Y264653D02*
G03*
X200064Y263900I-3473J-2653D01*
G01*
X200563Y234700D02*
G03*
X200919Y228900I3437J-2700D01*
G01*
X220400Y225029D02*
G03*
X219841Y226376I-1900J0D01*
G01*
X220400Y225029D02*
G03*
X219844Y226373I-1900J0D01*
G01*
Y215157D02*
G03*
X220400Y216500I-1343J1343D01*
G01*
X219841Y215154D02*
G03*
X220400Y216500I-1341J1346D01*
G01*
X218371Y212000D02*
G03*
X218127Y213440I-4371J0D01*
G01*
X218371Y192000D02*
G03*
X210400Y194478I-4371J0D01*
G01*
X218371Y182000D02*
G03*
X210400Y184478I-4371J0D01*
G01*
Y179522D02*
G03*
X218371Y182000I3600J2478D01*
G01*
Y172000D02*
G03*
X210400Y174478I-4371J0D01*
G01*
X209183Y220659D02*
G03*
X210033Y220166I1346J1341D01*
G01*
X209186Y220656D02*
G03*
X210033Y220166I1343J1343D01*
G01*
X215440Y216127D02*
G03*
X218371Y212000I-1440J-4127D01*
G01*
X210033Y220166D02*
G03*
X216600Y218487I3967J1834D01*
G01*
X200919Y225100D02*
G03*
X208342Y221501I3081J-3100D01*
G01*
X208127Y200560D02*
G03*
X208370Y202000I-4127J1440D01*
G01*
Y212000D02*
G03*
X208370Y212000I-4371J0D01*
G01*
X218371Y202000D02*
G03*
X218371Y202000I-4371J0D01*
G01*
X210400Y197500D02*
G03*
X209841Y198846I-1900J0D01*
G01*
X210400Y197500D02*
G03*
X209843Y198844I-1900J0D01*
G01*
X208370Y202000D02*
G03*
X205440Y197873I-4371J0D01*
G01*
X206600Y195513D02*
G03*
X206600Y188487I-2600J-3513D01*
G01*
X210400Y189522D02*
G03*
X218371Y192000I3600J2478D01*
G01*
X206600Y185513D02*
G03*
X206600Y178487I-2600J-3513D01*
G01*
X199844Y278843D02*
G03*
X198500Y279400I-1343J-1343D01*
G01*
X199846Y278841D02*
G03*
X198500Y279400I-1346J-1341D01*
G01*
X166748Y282053D02*
G03*
X170459Y286004I-248J3951D01*
G01*
D02*
G03*
X166252Y282053I-3959J0D01*
G01*
X171059Y277500D02*
G03*
X166748Y282053I-4559J0D01*
G01*
X161059Y277500D02*
G03*
X152062Y276456I-4559J0D01*
G01*
X180645Y279400D02*
G03*
X180645Y275600I-4145J-1900D01*
G01*
X166252Y282053D02*
G03*
X171059Y277500I248J-4553D01*
G01*
X155456Y273062D02*
G03*
X161059Y277500I1044J4438D01*
G01*
X151059D02*
G03*
X151059Y277500I-4559J0D01*
G01*
X147642Y266242D02*
G03*
X149339Y266945I0J2400D01*
G01*
X147642Y266242D02*
G03*
X149339Y266945I0J2400D01*
G01*
X154033Y250100D02*
G03*
X153050Y242400I1467J-4100D01*
G01*
X149855Y246000D02*
G03*
X146967Y250100I-4355J0D01*
G01*
X147950Y242400D02*
G03*
X149855Y246000I-2450J3600D01*
G01*
X144033Y250100D02*
G03*
X143050Y242400I1467J-4100D01*
G01*
X194246Y233641D02*
G03*
X192900Y234200I-1346J-1341D01*
G01*
X194244Y233644D02*
G03*
X192900Y234200I-1343J-1343D01*
G01*
X196856Y225657D02*
G03*
X198200Y225100I1343J1343D01*
G01*
X196854Y225659D02*
G03*
X198200Y225100I1346J1341D01*
G01*
X220400Y137500D02*
G03*
X219844Y138844I-1900J0D01*
G01*
X220400Y137500D02*
G03*
X219841Y138846I-1900J0D01*
G01*
X218127Y140560D02*
G03*
X218371Y142000I-4127J1440D01*
G01*
X219844Y118657D02*
G03*
X220400Y120000I-1343J1343D01*
G01*
X216600Y135513D02*
G03*
X212560Y136127I-2600J-3513D01*
G01*
X216600Y125513D02*
G03*
X212560Y126127I-2600J-3513D01*
G01*
X219841Y118654D02*
G03*
X220400Y120000I-1341J1346D01*
G01*
X216411Y115645D02*
G03*
X217346Y116159I-411J1855D01*
G01*
X218371Y112000D02*
G03*
X216411Y115645I-4371J0D01*
G01*
Y115645D02*
G03*
X217343Y116156I-411J1855D01*
G01*
X209843Y167657D02*
G03*
X210400Y169000I-1343J1343D01*
G01*
X209841Y167654D02*
G03*
X210400Y169000I-1341J1346D01*
G01*
Y169522D02*
G03*
X218371Y172000I3600J2478D01*
G01*
Y162000D02*
G03*
X218371Y162000I-4371J0D01*
G01*
Y152000D02*
G03*
X218371Y152000I-4371J0D01*
G01*
X208370Y162000D02*
G03*
X207173Y165005I-4371J0D01*
G01*
X206600Y175513D02*
G03*
X199873Y170560I-2600J-3513D01*
G01*
X199661Y161474D02*
G03*
X208370Y162000I4339J526D01*
G01*
Y152000D02*
G03*
X208370Y152000I-4371J0D01*
G01*
Y142000D02*
G03*
X200064Y143900I-4371J0D01*
G01*
X218371Y142000D02*
G03*
X215440Y137873I-4371J0D01*
G01*
X210846Y137841D02*
G03*
X209500Y138400I-1346J-1341D01*
G01*
X209873Y133440D02*
G03*
X216600Y128487I4127J-1440D01*
G01*
X210843Y137844D02*
G03*
X209500Y138400I-1343J-1343D01*
G01*
X210346Y128341D02*
G03*
X209000Y128900I-1346J-1341D01*
G01*
X210344Y128343D02*
G03*
X209000Y128900I-1343J-1343D01*
G01*
X211522Y115600D02*
G03*
X218371Y112000I2478J-3600D01*
G01*
X206478Y138400D02*
G03*
X208370Y142000I-2478J3600D01*
G01*
Y132000D02*
G03*
X207513Y134600I-4371J0D01*
G01*
X207081Y128900D02*
G03*
X208370Y132000I-3081J3100D01*
G01*
X201522Y115600D02*
G03*
X208370Y112000I2478J-3600D01*
G01*
D02*
G03*
X206478Y115600I-4371J0D01*
G01*
X218371Y102000D02*
G03*
X218371Y102000I-4371J0D01*
G01*
Y82000D02*
G03*
X218371Y82000I-4371J0D01*
G01*
Y92000D02*
G03*
X218371Y92000I-4371J0D01*
G01*
Y72000D02*
G03*
X212830Y76211I-4371J0D01*
G01*
X210720Y78320D02*
G03*
X209200Y78950I-1520J-1520D01*
G01*
X209789Y73170D02*
G03*
X218371Y72000I4211J-1170D01*
G01*
X210720Y78320D02*
G03*
X209200Y78950I-1520J-1520D01*
G01*
X208370Y102000D02*
G03*
X208370Y102000I-4371J0D01*
G01*
Y92000D02*
G03*
X208370Y92000I-4371J0D01*
G01*
X207130Y78950D02*
G03*
X208370Y82000I-3130J3050D01*
G01*
D02*
G03*
X200870Y78950I-4371J0D01*
G01*
X208370Y72000D02*
G03*
X207475Y74650I-4371J0D01*
G01*
X203114Y67720D02*
G03*
X208370Y72000I886J4280D01*
G01*
X200487Y134600D02*
G03*
X200919Y128900I3513J-2600D01*
G01*
X184500Y143900D02*
G03*
X183154Y143341I0J-1900D01*
G01*
X184500Y143900D02*
G03*
X183157Y143343I0J-1900D01*
G01*
X181465Y141652D02*
G03*
X179962Y141775I-1065J-3752D01*
G01*
X172400Y109700D02*
G03*
X173746Y110259I0J1900D01*
G01*
X172400Y109700D02*
G03*
X173743Y110257I0J1900D01*
G01*
X199600Y65200D02*
G03*
X201297Y65903I0J2400D01*
G01*
X199600Y65200D02*
G03*
X201297Y65903I0J2400D01*
G01*
X168500Y78950D02*
G03*
X166980Y78320I0J-2150D01*
G01*
X168500Y78950D02*
G03*
X166980Y78320I0J-2150D01*
G01*
X152798Y84648D02*
G03*
X152884Y85500I-4148J852D01*
G01*
X157884Y80500D02*
G03*
X152798Y84648I-4235J0D01*
G01*
X149502Y81352D02*
G03*
X149502Y79648I4148J-852D01*
G01*
X152798Y76352D02*
G03*
X157884Y80500I852J4148D01*
G01*
X152884Y85500D02*
G03*
X149502Y81352I-4235J0D01*
G01*
Y79648D02*
G03*
X145196Y73050I-852J-4148D01*
G01*
X152884Y75500D02*
G03*
X152798Y76352I-4235J0D01*
G01*
X152103Y73050D02*
G03*
X152884Y75500I-3454J2450D01*
G01*
X146158Y61197D02*
G03*
X144461Y61900I-1697J-1697D01*
G01*
X146158Y61197D02*
G03*
X144461Y61900I-1697J-1697D01*
G01*
X160057Y47961D02*
G03*
X155384Y51971I-4058J0D01*
G01*
X151990Y48577D02*
G03*
X160057Y47961I4010J-616D01*
G01*
X150057D02*
G03*
X150057Y47961I-4058J0D01*
G01*
X116240Y271042D02*
G03*
X118451Y275000I-2437J3958D01*
G01*
D02*
G03*
X111367Y271042I-4648J0D01*
G01*
X109346Y247941D02*
G03*
X108000Y248500I-1346J-1341D01*
G01*
X109344Y247943D02*
G03*
X108000Y248500I-1343J-1343D01*
G01*
X101240Y271042D02*
G03*
X103451Y275000I-2437J3958D01*
G01*
D02*
G03*
X96367Y271042I-4648J0D01*
G01*
X102014Y240500D02*
G03*
X99205Y236860I-3762J0D01*
G01*
X94352Y248500D02*
G03*
X93006Y247941I0J-1900D01*
G01*
X94352Y248500D02*
G03*
X93009Y247943I0J-1900D01*
G01*
X107693Y244220D02*
G03*
X111972Y239941I559J-3720D01*
G01*
X112400Y236600D02*
G03*
X114300Y234700I1900J0D01*
G01*
X112400Y236600D02*
G03*
X114300Y234700I1900J0D01*
G01*
X105108Y230957D02*
G03*
X106452Y230400I1343J1343D01*
G01*
X105106Y230959D02*
G03*
X106452Y230400I1346J1341D01*
G01*
X101892Y239547D02*
G03*
X102014Y240500I-3640J953D01*
G01*
X92014D02*
G03*
X91892Y241453I-3762J0D01*
G01*
X89205Y244140D02*
G03*
X92014Y240500I-953J-3640D01*
G01*
X88451Y275000D02*
G03*
X79291Y273882I-4648J0D01*
G01*
X88315D02*
G03*
X88451Y275000I-4512J1118D01*
G01*
X64262Y286142D02*
G03*
X64262Y286142I-3762J0D01*
G01*
X62570Y273000D02*
G03*
X64262Y276142I-2070J3142D01*
G01*
D02*
G03*
X58430Y273000I-3762J0D01*
G01*
X82686Y270488D02*
G03*
X84921Y270488I1118J4512D01*
G01*
X79403Y268200D02*
G03*
X81100Y268903I0J2400D01*
G01*
X46745Y273000D02*
G03*
X45048Y272297I0J-2400D01*
G01*
X46745Y273000D02*
G03*
X45048Y272297I0J-2400D01*
G01*
X79403Y268200D02*
G03*
X81100Y268903I0J2400D01*
G01*
X88464Y266945D02*
G03*
X90161Y266242I1697J1697D01*
G01*
X88464Y266945D02*
G03*
X90161Y266242I1697J1697D01*
G01*
X64262Y266142D02*
G03*
X63649Y268200I-3762J0D01*
G01*
X64140Y265189D02*
G03*
X64262Y266142I-3640J953D01*
G01*
X40895Y261356D02*
G03*
X42800Y257094I3805J-857D01*
G01*
X26440Y253690D02*
G03*
X25737Y251993I1697J-1697D01*
G01*
X26440Y253690D02*
G03*
X25737Y251993I1697J-1697D01*
G01*
X74200Y232700D02*
G03*
X75546Y233259I0J1900D01*
G01*
X74200Y232700D02*
G03*
X75543Y233257I0J1900D01*
G01*
X29834Y242440D02*
G03*
X30537Y244137I-1697J1697D01*
G01*
X29834Y242440D02*
G03*
X30537Y244137I-1697J1697D01*
G01*
X42800Y240000D02*
G03*
X43359Y238654I1900J0D01*
G01*
X42800Y240000D02*
G03*
X43356Y238656I1900J0D01*
G01*
X48757Y233257D02*
G03*
X50100Y232700I1343J1343D01*
G01*
X48754Y233259D02*
G03*
X50100Y232700I1346J1341D01*
G01*
X25648Y252000D02*
G03*
X25648Y252000I-4648J0D01*
G01*
X24613Y204000D02*
G03*
X24613Y204000I-4247J0D01*
G01*
X82959Y115246D02*
G03*
X82400Y113900I1341J-1346D01*
G01*
X82956Y115243D02*
G03*
X82400Y113900I1343J-1343D01*
G01*
X122014Y94000D02*
G03*
X122014Y94000I-3762J0D01*
G01*
X112014D02*
G03*
X111892Y94953I-3762J0D01*
G01*
X105510Y91424D02*
G03*
X112014Y94000I2742J2576D01*
G01*
X105043Y90657D02*
G03*
X105510Y91424I-1343J1343D01*
G01*
X105041Y90654D02*
G03*
X105510Y91424I-1341J1346D01*
G01*
X82400Y91000D02*
G03*
X82956Y89657I1900J0D01*
G01*
X82400Y91000D02*
G03*
X82959Y89654I1900J0D01*
G01*
X78146Y90741D02*
G03*
X76800Y91300I-1346J-1341D01*
G01*
X99176Y85576D02*
G03*
X100522Y86135I0J1900D01*
G01*
X99176Y85576D02*
G03*
X100520Y86133I0J1900D01*
G01*
X117981Y61900D02*
G03*
X117981Y57100I-3980J-2400D01*
G01*
X92100Y70000D02*
G03*
X90403Y69297I0J-2400D01*
G01*
X92100Y70000D02*
G03*
X90403Y69297I0J-2400D01*
G01*
X85118Y64012D02*
G03*
X82882Y64012I-1118J-4512D01*
G01*
X103648Y59500D02*
G03*
X103648Y59500I-4648J0D01*
G01*
X79488Y60618D02*
G03*
X88648Y59500I4512J-1118D01*
G01*
D02*
G03*
X88512Y60618I-4648J0D01*
G01*
X78144Y90743D02*
G03*
X76800Y91300I-1343J-1343D01*
G01*
X54084Y136703D02*
G03*
X52741Y137259I-1343J-1343D01*
G01*
X54087Y136700D02*
G03*
X52741Y137259I-1346J-1341D01*
G01*
X46152Y133459D02*
G03*
X52806Y129400I3248J-2159D01*
G01*
X24900Y91300D02*
G03*
X23000Y89400I0J-1900D01*
G01*
X24900Y91300D02*
G03*
X23000Y89400I0J-1900D01*
G01*
Y86191D02*
G03*
X23000Y84261I-3941J-965D01*
G01*
X11943Y137259D02*
G03*
X12697Y133459I-2943J-2559D01*
G01*
X13116Y85226D02*
G03*
X13116Y85226I-4058J0D01*
G01*
X66839Y80055D02*
G03*
X65142Y80758I-1697J-1697D01*
G01*
X66839Y80055D02*
G03*
X65142Y80758I-1697J-1697D01*
G01*
X57253Y66458D02*
G03*
X64262Y68358I3247J1900D01*
G01*
D02*
G03*
X57253Y70258I-3762J0D01*
G01*
X23000Y80000D02*
G03*
X23557Y78657I1900J0D01*
G01*
X23000Y80000D02*
G03*
X23559Y78654I1900J0D01*
G01*
X35195Y67018D02*
G03*
X36542Y66458I1346J1341D01*
G01*
X35198Y67015D02*
G03*
X36542Y66458I1343J1343D01*
G01*
X64262Y58358D02*
G03*
X64262Y58358I-3762J0D01*
G01*
Y48358D02*
G03*
X64262Y48358I-3762J0D01*
G01*
X216946Y295000D02*
X222500Y289446D01*
X215552Y280606D02*
X222500Y287554D01*
X219774Y295000D02*
X222500Y292274D01*
X215390Y279585D02*
X222500Y272475D01*
X215428Y282376D02*
X222500Y275303D01*
X214117Y295000D02*
X222500Y286617D01*
X214306Y285017D02*
X222500Y293211D01*
X212939Y286479D02*
X221461Y295000D01*
X215249Y283132D02*
X222500Y290382D01*
X211289Y295000D02*
X222500Y283789D01*
X217049Y265132D02*
X222500Y270583D01*
X218141Y263396D02*
X222500Y267755D01*
X215270Y266182D02*
X222500Y273412D01*
X218343Y262490D02*
X222500Y258333D01*
X218123Y260549D02*
X222500Y264926D01*
X213314Y276004D02*
X222500Y266818D01*
X214588Y277558D02*
X222500Y269647D01*
X211615Y274875D02*
X222500Y263990D01*
X212276Y266016D02*
X222500Y276240D01*
X215317Y282934D02*
X215525Y281888D01*
X215552Y281076D02*
Y281610D01*
X214827Y284187D02*
X215236Y283202D01*
X215552Y280543D02*
Y281076D01*
X215317Y279219D02*
X215525Y280265D01*
X213172Y286291D02*
X213926Y285537D01*
X214103Y285320D02*
X214696Y284434D01*
X212069Y287060D02*
X212955Y286468D01*
X214827Y277966D02*
X215236Y278951D01*
X214103Y276832D02*
X214696Y277719D01*
X213172Y275862D02*
X213926Y276616D01*
X212356Y257611D02*
X212604Y257859D01*
X212069Y275092D02*
X212955Y275685D01*
X217644Y254413D02*
X222500Y259269D01*
X217644Y254413D02*
X222500Y259269D01*
X217926Y260079D02*
X222500Y255504D01*
X218300Y251219D02*
X222500Y247019D01*
X218360Y252301D02*
X222500Y256441D01*
X216651Y258525D02*
X222500Y252676D01*
X214667Y257681D02*
X222500Y249848D01*
X216186Y255784D02*
X222500Y262098D01*
X216945Y245229D02*
X222500Y250784D01*
X215113Y246226D02*
X222500Y253613D01*
X218214Y240842D02*
X222500Y245127D01*
X218310Y242724D02*
X222500Y238534D01*
X218089Y243544D02*
X222500Y247956D01*
X218328Y231392D02*
X222500Y227220D01*
X218343Y232486D02*
X222500Y236642D01*
X215831Y248031D02*
X222500Y241362D01*
X217416Y249274D02*
X222500Y244191D01*
X217451Y228765D02*
X222500Y233814D01*
X214838Y237711D02*
X222500Y230048D01*
X213944Y256370D02*
X215451Y257877D01*
X213357Y247677D02*
X214724Y246310D01*
X217990Y240216D02*
X222500Y235705D01*
X216057Y235856D02*
X222500Y242299D01*
X212371Y257149D02*
X213219Y256300D01*
X212373Y246314D02*
X213699Y247640D01*
X212371Y256316D02*
Y257373D01*
X217562Y234532D02*
X222500Y239471D01*
X216763Y238614D02*
X222500Y232877D01*
X213735Y236362D02*
X215159Y237786D01*
X212371Y237350D02*
X213392Y236328D01*
X212371Y236316D02*
Y237373D01*
X208721Y287917D02*
X215804Y295000D01*
X211117Y287484D02*
X218632Y295000D01*
X202803D02*
X210011Y287793D01*
X208460Y295000D02*
X222500Y280960D01*
X204296Y286320D02*
X212976Y295000D01*
X199975D02*
X207220Y287755D01*
X194547Y279400D02*
X210147Y295000D01*
X197147D02*
X205193Y286953D01*
X191719Y279400D02*
X207319Y295000D01*
X188890Y279400D02*
X204490Y295000D01*
X208178Y287917D02*
X209245D01*
X209523Y287890D02*
X210569Y287682D01*
X206854D02*
X207900Y287890D01*
X205632Y295000D02*
X222500Y278132D01*
X210837Y287600D02*
X211822Y287192D01*
X205601D02*
X206586Y287600D01*
X204468Y286468D02*
X205354Y287060D01*
X204468Y275685D02*
X205354Y275092D01*
X203467Y285492D02*
X204296Y286320D01*
X203497Y285537D02*
X204251Y286291D01*
X202727Y284434D02*
X203320Y285320D01*
X202187Y283202D02*
X202595Y284187D01*
X197376Y279400D02*
X203467Y285492D01*
X201898Y281888D02*
X202106Y282934D01*
X191490Y295000D02*
X202510Y283980D01*
X194318Y295000D02*
X203639Y285679D01*
X188661Y295000D02*
X201898Y281763D01*
X185833Y295000D02*
X202403Y278430D01*
X186062Y279400D02*
X201662Y295000D01*
X202187Y278951D02*
X202595Y277966D01*
X202727Y277719D02*
X203320Y276832D01*
X201898Y280265D02*
X202106Y279219D01*
X203497Y276616D02*
X204251Y275862D01*
X202574Y276113D02*
X203309Y276848D01*
X201871Y280543D02*
Y281076D01*
Y281610D01*
X201160Y277527D02*
X202303Y278671D01*
X199742Y278938D02*
X201871Y281067D01*
X209645Y269042D02*
X222500Y281897D01*
X210837Y274552D02*
X211822Y274960D01*
X209523Y274263D02*
X210569Y274471D01*
X211015Y267583D02*
X222500Y279069D01*
X208231Y270456D02*
X222500Y284725D01*
X199846Y278841D02*
X210714Y267973D01*
X208178Y274236D02*
X209245D01*
X209398Y274263D02*
X222500Y261161D01*
X206065Y274768D02*
X214490Y266343D01*
X211270Y266734D02*
X212079Y265926D01*
X211273Y265416D02*
Y266627D01*
X210959Y247728D02*
X211587Y248356D01*
X210959Y247728D02*
X211587Y248356D01*
X210371Y248316D02*
Y249565D01*
Y248316D02*
X212560Y246127D01*
X205601Y274960D02*
X206586Y274552D01*
X206854Y274471D02*
X207900Y274263D01*
X203988Y274699D02*
X204771Y275482D01*
X206817Y271870D02*
X209182Y274236D01*
X205402Y273285D02*
X206656Y274538D01*
X193919Y275600D02*
X203219Y266300D01*
X197713Y275600D02*
X207473Y265840D01*
X191091Y275600D02*
X201274Y265416D01*
X196748Y275600D02*
X207473Y264874D01*
X193189Y263900D02*
X201301Y272012D01*
X206312Y265709D02*
X206958Y266355D01*
X207473Y264653D02*
Y265840D01*
X204143Y266368D02*
X205544Y267769D01*
X198846Y263900D02*
X204130Y269183D01*
X196018Y263900D02*
X202715Y270598D01*
X195221Y234700D02*
X200402Y229519D01*
X220400Y223663D02*
X222500Y221563D01*
X220400Y220400D02*
X222500Y222500D01*
X220400Y223228D02*
X222500Y225328D01*
X220400Y218006D02*
X222500Y215906D01*
X220400Y220835D02*
X222500Y218735D01*
X217504Y229388D02*
X222500Y224392D01*
X220207Y225864D02*
X222500Y228157D01*
X218866Y227351D02*
X222500Y230985D01*
X218320Y212663D02*
X222500Y216843D01*
X220400Y217571D02*
X222500Y219672D01*
X218718Y214031D02*
X222500Y210249D01*
X218349Y211572D02*
X222500Y207421D01*
X220101Y215477D02*
X222500Y213078D01*
X218189Y203247D02*
X222500Y198936D01*
X218322Y201351D02*
X222500Y205529D01*
X216728Y205414D02*
X222500Y211186D01*
X214785Y206299D02*
X222500Y214015D01*
X218106Y200502D02*
X222500Y196107D01*
X217588Y209505D02*
X222500Y204593D01*
X217346Y228870D02*
X219841Y226376D01*
X220400Y216500D02*
Y225029D01*
X216600Y217287D02*
Y218487D01*
X215003Y217746D02*
X216031Y216718D01*
X211519Y218402D02*
X213572Y216349D01*
X215440Y216127D02*
X216600Y217287D01*
X213515Y216343D02*
X214893Y217722D01*
X218127Y213440D02*
X219841Y215154D01*
X216098Y208166D02*
X222500Y201764D01*
X217970Y203828D02*
X222500Y208358D01*
X213802Y207634D02*
X215247Y206189D01*
X212017Y198106D02*
X213758Y196364D01*
X213282Y196311D02*
X214649Y197678D01*
X210400Y196258D02*
X212172Y198030D01*
X218290Y192834D02*
X222500Y197044D01*
X218364Y191758D02*
X222500Y187622D01*
X217388Y194761D02*
X222500Y199873D01*
X217905Y183963D02*
X222500Y188559D01*
X217669Y189625D02*
X222500Y184794D01*
X216978Y198801D02*
X222500Y193279D01*
X215163Y197787D02*
X222500Y190451D01*
X215787Y195988D02*
X222500Y202701D01*
X216615Y185502D02*
X222500Y191387D01*
X214612Y186327D02*
X222500Y194216D01*
X218086Y183551D02*
X222500Y179137D01*
X218157Y180651D02*
X222500Y176308D01*
X218350Y181581D02*
X222500Y185730D01*
X218255Y173000D02*
X222500Y177245D01*
X217296Y174870D02*
X222500Y180073D01*
X215647Y176049D02*
X222500Y182902D01*
X216226Y188239D02*
X222500Y181965D01*
X215318Y177833D02*
X222500Y170651D01*
X217080Y178900D02*
X222500Y173480D01*
X214007Y187629D02*
X215551Y186086D01*
X210400Y196894D02*
X211625Y195669D01*
X210400Y187773D02*
X211239Y188612D01*
X210400Y194478D02*
Y197500D01*
Y184944D02*
X213166Y187710D01*
X210400Y188408D02*
X212651Y186157D01*
X210400Y185580D02*
X210900Y185080D01*
X213031Y176262D02*
X214419Y177650D01*
X212384Y177939D02*
X213953Y176370D01*
X210400Y176459D02*
X212037Y178095D01*
X210400Y177095D02*
X211749Y175746D01*
X210400Y174478D02*
Y179522D01*
X209548Y220373D02*
X210402Y219519D01*
X207588Y219505D02*
X211505Y215588D01*
X206838Y215323D02*
X210677Y219162D01*
X204952Y216266D02*
X209267Y220580D01*
X208031Y213688D02*
X212312Y217969D01*
X206098Y218166D02*
X210166Y214098D01*
X208278Y211107D02*
X209657Y212485D01*
X208106Y210502D02*
X212502Y206106D01*
X208189Y213247D02*
X209634Y211802D01*
X208320Y202663D02*
X213337Y207680D01*
X208586Y200101D02*
X209701Y201215D01*
X206978Y208801D02*
X210801Y204978D01*
X205924Y205924D02*
X210076Y210076D01*
X207477Y204648D02*
X211352Y208523D01*
X205163Y207787D02*
X209787Y203163D01*
X198200Y225100D02*
X200919D01*
X208342Y221501D02*
X209183Y220659D01*
X198987Y228900D02*
X200919D01*
X201274Y215416D02*
X203515Y217657D01*
X176894Y230400D02*
X201625Y205669D01*
X188207Y230400D02*
X202502Y216106D01*
X185379Y230400D02*
X200801Y214978D01*
X183471Y200441D02*
X201467Y218438D01*
X174065Y230400D02*
X200239Y204226D01*
X203802Y217634D02*
X205247Y216189D01*
X203515Y206344D02*
X204893Y207722D01*
X202017Y208105D02*
X203758Y206364D01*
X209991Y198677D02*
X210586Y199272D01*
X208364Y201758D02*
X210105Y200017D01*
X208127Y200560D02*
X209841Y198846D01*
X205440Y197873D02*
X206600Y196713D01*
Y195513D02*
Y196713D01*
X210400Y184478D02*
Y189522D01*
X206600Y185513D02*
Y188487D01*
Y175513D02*
Y178487D01*
X206351Y178315D02*
X206600Y178066D01*
X205787Y185988D02*
X206600Y186801D01*
X205318Y187833D02*
X206600Y186551D01*
X204612Y176327D02*
X206600Y178316D01*
X185536Y194021D02*
X200676Y209162D01*
X186068Y191725D02*
X202312Y207969D01*
X184250Y198392D02*
X200584Y214726D01*
X186910Y181254D02*
X203337Y197680D01*
X186910Y184082D02*
X201352Y198523D01*
X168408Y230400D02*
X202651Y196157D01*
X165580Y230400D02*
X200900Y195080D01*
X179814Y207681D02*
X201749Y185746D01*
X182937Y201729D02*
X200315Y184351D01*
X204007Y197629D02*
X205551Y196086D01*
X204785Y196299D02*
X205899Y197414D01*
X202384Y187939D02*
X203953Y186370D01*
X204204Y177634D02*
X205904Y175934D01*
X203282Y186311D02*
X204648Y187678D01*
X185709Y193300D02*
X202805Y176204D01*
X186371Y189810D02*
X201001Y175180D01*
X185571Y171429D02*
X202172Y188030D01*
X186289Y174976D02*
X200586Y189272D01*
X180567Y279562D02*
X196005Y295000D01*
X183233Y279400D02*
X198833Y295000D01*
X179286Y281109D02*
X193177Y295000D01*
X183004D02*
X198607Y279397D01*
X180176Y295000D02*
X195776Y279400D01*
X177331Y281983D02*
X190348Y295000D01*
X177348D02*
X192948Y279400D01*
X168473Y281610D02*
X181863Y295000D01*
X174519D02*
X190119Y279400D01*
X166034Y295000D02*
X181634Y279400D01*
X180645D02*
X198500D01*
X171691Y295000D02*
X187291Y279400D01*
X170961Y278442D02*
X187520Y295000D01*
X170439Y286404D02*
X179034Y295000D01*
X169632Y288426D02*
X176206Y295000D01*
X170051Y280360D02*
X184691Y295000D01*
X168862D02*
X184462Y279400D01*
X165338Y289789D02*
X170549Y295000D01*
X168032Y289655D02*
X173378Y295000D01*
X163205D02*
X176159Y282047D01*
X157548Y295000D02*
X163723Y288826D01*
X160377Y295000D02*
X165534Y289843D01*
X154720Y295000D02*
X162679Y287041D01*
X154093Y281372D02*
X167721Y295000D01*
X157498Y281949D02*
X162715Y287166D01*
X170339Y285038D02*
X174039Y281338D01*
X169322Y283227D02*
X172633Y279915D01*
X167537Y282183D02*
X167872Y281848D01*
X170848Y278872D02*
X171949Y277771D01*
X160633Y279427D02*
X164078Y282872D01*
X159398Y281020D02*
X162849Y284472D01*
X161032Y276997D02*
X161960Y277926D01*
X182605Y275600D02*
X194305Y263900D01*
X184704D02*
X196404Y275600D01*
X181876Y263900D02*
X193576Y275600D01*
X188262D02*
X199962Y263900D01*
X185434Y275600D02*
X197134Y263900D01*
X179047D02*
X190747Y275600D01*
X180645D02*
X197713D01*
X173390Y263900D02*
X185090Y275600D01*
X170827Y276064D02*
X182992Y263900D01*
X187532D02*
X198473Y274840D01*
X190361Y263900D02*
X199887Y273426D01*
X180338Y275039D02*
X191477Y263900D01*
X178916Y273633D02*
X188648Y263900D01*
X177631Y234200D02*
X178131Y234700D01*
X170562Y263900D02*
X182262Y275600D01*
X169755Y274308D02*
X180163Y263900D01*
X176219D02*
X187919Y275600D01*
X176771Y272949D02*
X185820Y263900D01*
X170239Y274891D02*
X172017Y276669D01*
X161057Y277349D02*
X162099Y276307D01*
X164905Y263900D02*
X174438Y273433D01*
X162077Y263900D02*
X172891Y274714D01*
X160415Y275163D02*
X171678Y263900D01*
X159248D02*
X169109Y273761D01*
X159038Y273712D02*
X168850Y263900D01*
X153591D02*
X163640Y273949D01*
X165307Y273099D02*
X174506Y263900D01*
X167733D02*
X176783Y272949D01*
X156957Y272964D02*
X166021Y263900D01*
X168030Y273205D02*
X177335Y263900D01*
X175422Y234700D02*
X175922Y234200D01*
X153329Y270935D02*
X160364Y263900D01*
X151915Y269521D02*
X157536Y263900D01*
X156420D02*
X165559Y273039D01*
X154743Y272349D02*
X163193Y263900D01*
X148607Y281543D02*
X162064Y295000D01*
X151892D02*
X165064Y281827D01*
X146290Y282055D02*
X159235Y295000D01*
X150139Y280247D02*
X164892Y295000D01*
X149063D02*
X163308Y280755D01*
X140578Y295000D02*
X154163Y281415D01*
X143406Y295000D02*
X156349Y282057D01*
X137750Y295000D02*
X152712Y280038D01*
X146235Y295000D02*
X162205Y279030D01*
X132449Y271042D02*
X156407Y295000D01*
X150994Y278273D02*
X152628Y279907D01*
X150737Y279184D02*
X151964Y277958D01*
X150875Y276217D02*
X151349Y275743D01*
X149339Y266945D02*
X155456Y273062D01*
X150501Y268107D02*
X154707Y263900D01*
X146648Y271042D02*
X152062Y276456D01*
X146591Y271042D02*
X152051Y276502D01*
X147934Y263900D02*
X157003Y272968D01*
X149068Y266711D02*
X151879Y263900D01*
X132093Y295000D02*
X145217Y281875D01*
X134921Y295000D02*
X148184Y281737D01*
X135277Y271042D02*
X141945Y277710D01*
X140934Y271042D02*
X143753Y273861D01*
X138106Y271042D02*
X142457Y275393D01*
X148176Y273260D02*
X148521Y272915D01*
X145571Y273036D02*
X147107Y271501D01*
X146709Y266242D02*
X149050Y263900D01*
X143763Y271042D02*
X145727Y273007D01*
X139449Y263900D02*
X141791Y266242D01*
X136621Y263900D02*
X138962Y266242D01*
X135395D02*
X137737Y263900D01*
X150763D02*
X162390Y275527D01*
X151537Y250100D02*
X152490Y249147D01*
X149238Y248233D02*
X151105Y250100D01*
X148708D02*
X151385Y247424D01*
X145106Y263900D02*
X147448Y266242D01*
X146967Y250100D02*
X154033D01*
X143880Y266242D02*
X146222Y263900D01*
X147846Y249669D02*
X148277Y250100D01*
X149855Y246021D02*
X151461Y247627D01*
X151890Y242400D02*
X152416Y242926D01*
X149853Y246127D02*
X151375Y244605D01*
X149062Y242400D02*
X151348Y244686D01*
X149292Y243859D02*
X150751Y242400D01*
X147950D02*
X153050D01*
X141052Y266242D02*
X143394Y263900D01*
X142278D02*
X144619Y266242D01*
X138223D02*
X140565Y263900D01*
X134920Y242400D02*
X142620Y250100D01*
X140223D02*
X141889Y248434D01*
X132567Y266242D02*
X134908Y263900D01*
X130964D02*
X133306Y266242D01*
X134566Y250100D02*
X142266Y242400D01*
X133792Y263900D02*
X136134Y266242D01*
X143052Y250100D02*
X143359Y249792D01*
X140577Y242400D02*
X141831Y243654D01*
X138653Y234700D02*
X139153Y234200D01*
X138033D02*
X138533Y234700D01*
X137395Y250100D02*
X141158Y246336D01*
X137748Y242400D02*
X141150Y245802D01*
X132091Y242400D02*
X139791Y250100D01*
X131738D02*
X139438Y242400D01*
X195559Y232328D02*
X197930Y234700D01*
X198049D02*
X199746Y233003D01*
X195559Y232328D02*
X197930Y234700D01*
X196973Y230914D02*
X200177Y234118D01*
X194246Y233641D02*
X198987Y228900D01*
X192393Y234700D02*
X192893Y234200D01*
X194141Y233739D02*
X195102Y234700D01*
X191774Y234200D02*
X192274Y234700D01*
X198387Y229500D02*
X199774Y230887D01*
X192113Y230400D02*
X196854Y225659D01*
X199164Y225100D02*
X200166Y224098D01*
X182551Y230400D02*
X199787Y213163D01*
X191036Y230400D02*
X199634Y221802D01*
X176115Y212884D02*
X192872Y229641D01*
X176115Y212884D02*
X192872Y229641D01*
X186117Y234200D02*
X186617Y234700D01*
X186736D02*
X187236Y234200D01*
X183907Y234700D02*
X184407Y234200D01*
X189564Y234700D02*
X190064Y234200D01*
X188945D02*
X189445Y234700D01*
X174803Y234200D02*
X175303Y234700D01*
X180460Y234200D02*
X180960Y234700D01*
X172594D02*
X173094Y234200D01*
X183288D02*
X183788Y234700D01*
X181079D02*
X181579Y234200D01*
X173444Y215870D02*
X187974Y230400D01*
X174812Y214410D02*
X190802Y230400D01*
X178251Y234700D02*
X178751Y234200D01*
X174304Y215004D02*
X176665Y212239D01*
X174304Y215004D02*
X176665Y212239D01*
X172030Y217285D02*
X185145Y230400D01*
X171975Y234200D02*
X172475Y234700D01*
X171658Y217656D02*
X174228Y215086D01*
X171658Y217656D02*
X174228Y215086D01*
X182642Y202441D02*
X200144Y219943D01*
X184944Y196257D02*
X199734Y211048D01*
X181700Y204327D02*
X199638Y222265D01*
X186736Y186736D02*
X200076Y200076D01*
X186454Y189283D02*
X199656Y202485D01*
X179722Y230400D02*
X200106Y210017D01*
X178546Y209659D02*
X195700Y226813D01*
X177356Y211297D02*
X194286Y228227D01*
X180730Y206186D02*
X199644Y225100D01*
X179655Y207940D02*
X197139Y225424D01*
X186910Y182651D02*
Y184469D01*
Y180833D02*
Y182651D01*
Y184469D01*
Y183614D02*
X199829Y170695D01*
X186910Y180833D02*
Y182651D01*
X184637Y197201D02*
X199634Y182203D01*
X186621Y188205D02*
X186906Y184581D01*
X186747Y186606D02*
X199884Y173469D01*
X186709Y178224D02*
X199701Y191215D01*
X182585Y202579D02*
X183976Y199221D01*
X182585Y202579D02*
X183976Y199221D01*
X180888Y205920D02*
X182538Y202681D01*
X184015Y199116D02*
X185138Y195659D01*
X184015Y199116D02*
X185138Y195659D01*
X176735Y212151D02*
X178871Y209210D01*
X178934Y209117D02*
X180833Y206018D01*
X176735Y212151D02*
X178871Y209210D01*
X180888Y205920D02*
X182538Y202681D01*
X178934Y209117D02*
X180833Y206018D01*
X186039Y191906D02*
X186608Y188316D01*
X186621Y188205D02*
X186906Y184581D01*
X186039Y191906D02*
X186608Y188316D01*
X186621Y177098D02*
X186906Y180722D01*
X186621Y177098D02*
X186906Y180722D01*
X185169Y195551D02*
X186017Y192016D01*
X185169Y195551D02*
X186017Y192016D01*
X186039Y173396D02*
X186608Y176986D01*
X186039Y173396D02*
X186608Y176986D01*
X166318Y234200D02*
X166818Y234700D01*
X166937D02*
X167437Y234200D01*
X164108Y234700D02*
X164608Y234200D01*
X169765Y234700D02*
X170265Y234200D01*
X169146D02*
X169646Y234700D01*
X158451D02*
X158951Y234200D01*
X160661D02*
X161161Y234700D01*
X157832Y234200D02*
X158332Y234700D01*
X163489Y234200D02*
X163989Y234700D01*
X161280D02*
X161780Y234200D01*
X152176D02*
X152676Y234700D01*
X152795D02*
X153295Y234200D01*
X149966Y234700D02*
X150466Y234200D01*
X155623Y234700D02*
X156123Y234200D01*
X155004D02*
X155504Y234700D01*
X149347Y234200D02*
X149847Y234700D01*
X147138D02*
X147638Y234200D01*
X146519D02*
X147019Y234700D01*
X145781Y230400D02*
X146382Y229799D01*
X140862Y234200D02*
X141362Y234700D01*
X141481D02*
X141981Y234200D01*
X135824Y234700D02*
X136324Y234200D01*
X144309Y234700D02*
X144809Y234200D01*
X143690D02*
X144190Y234700D01*
X132996D02*
X133496Y234200D01*
X135205D02*
X135705Y234700D01*
X132377Y234200D02*
X132877Y234700D01*
X134467Y230400D02*
X134735Y230133D01*
X131639Y230400D02*
X132216Y229823D01*
X142953Y230400D02*
X143178Y230175D01*
X141153Y230334D02*
X144777Y230049D01*
X137406Y230338D02*
X141041D01*
X145142Y229995D02*
X145547Y230400D01*
X141153Y230334D02*
X144777Y230049D01*
X137406Y230338D02*
X141041D01*
X133900Y230067D02*
X134233Y230400D01*
X133670Y230049D02*
X137294Y230334D01*
X133670Y230049D02*
X137294Y230334D01*
X167391Y221131D02*
X176660Y230400D01*
X169011Y219923D02*
X179488Y230400D01*
X165747Y222316D02*
X173831Y230400D01*
X171237D02*
X199629Y202007D01*
X170537Y218620D02*
X182317Y230400D01*
X162226Y224451D02*
X168175Y230400D01*
X164000Y223397D02*
X171003Y230400D01*
X160352Y225406D02*
X165346Y230400D01*
X159923D02*
X199939Y190384D01*
X162751Y230400D02*
X199833Y193318D01*
X165783Y222299D02*
X168723Y220163D01*
X165783Y222299D02*
X168723Y220163D01*
X162590Y224261D02*
X165690Y222361D01*
X168812Y220093D02*
X171576Y217732D01*
X168812Y220093D02*
X171576Y217732D01*
X158430Y226312D02*
X162518Y230400D01*
X159253Y225966D02*
X162492Y224316D01*
X162590Y224261D02*
X165690Y222361D01*
X157095Y230400D02*
X164253Y223242D01*
X152202Y228570D02*
X154032Y230400D01*
X154341Y227880D02*
X156861Y230400D01*
X151438D02*
X153773Y228065D01*
X156430Y227140D02*
X159689Y230400D01*
X154266D02*
X158301Y226365D01*
X147584Y229609D02*
X148376Y230400D01*
X130567Y229562D02*
X131405Y230400D01*
X149927Y229123D02*
X151204Y230400D01*
X148609D02*
X149873Y229137D01*
X152231Y228566D02*
X155688Y227443D01*
X155793Y227404D02*
X159151Y226013D01*
X152231Y228566D02*
X155688Y227443D01*
X159253Y225966D02*
X162492Y224316D01*
X155793Y227404D02*
X159151Y226013D01*
X144888Y230036D02*
X148478Y229467D01*
X144888Y230036D02*
X148478Y229467D01*
X148588Y229445D02*
X152123Y228596D01*
X148588Y229445D02*
X152123Y228596D01*
X217835Y164095D02*
X222500Y168760D01*
X218366Y161797D02*
X222500Y165931D01*
X218370Y171953D02*
X222500Y167823D01*
X218204Y160805D02*
X222500Y156509D01*
X217934Y163904D02*
X222500Y159338D01*
X216498Y165586D02*
X222500Y171588D01*
X217746Y169749D02*
X222500Y164995D01*
X217588Y169505D02*
X222500Y174417D01*
X215501Y156104D02*
X222500Y163103D01*
X216351Y168315D02*
X222500Y162166D01*
X217890Y150007D02*
X222500Y154618D01*
X218368Y152156D02*
X222500Y148024D01*
X218214Y153160D02*
X222500Y157446D01*
X218941Y139745D02*
X222500Y143304D01*
X218371Y142003D02*
X222500Y146132D01*
X217179Y159001D02*
X222500Y153681D01*
X217201Y154976D02*
X222500Y160275D01*
X217678Y144361D02*
X222500Y139539D01*
X215469Y157884D02*
X222500Y150853D01*
X216378Y145667D02*
X222500Y151789D01*
X217820Y149876D02*
X222500Y145196D01*
X214432Y166349D02*
X216495Y168412D01*
X216472Y148396D02*
X222500Y142367D01*
X217763Y144223D02*
X222500Y148961D01*
X214204Y167634D02*
X215904Y165934D01*
X212759Y156191D02*
X214203Y157634D01*
X212695Y157829D02*
X214156Y156368D01*
X214392Y147647D02*
X216361Y145678D01*
X214246Y146364D02*
X215992Y148110D01*
X220254Y138230D02*
X222500Y140475D01*
X218127Y140560D02*
X219841Y138846D01*
X218246Y140964D02*
X222500Y136710D01*
X215440Y137873D02*
X216600Y136713D01*
X212973Y137752D02*
X214370Y136355D01*
X212527Y136160D02*
X213997Y137629D01*
X220400Y135982D02*
X222500Y133882D01*
X220400Y132719D02*
X222500Y134819D01*
X220400Y135547D02*
X222500Y137647D01*
Y39000D02*
Y295000D01*
X220400Y133153D02*
X222500Y131053D01*
X220400Y130325D02*
X222500Y128225D01*
X220400Y127062D02*
X222500Y129162D01*
X220400Y129890D02*
X222500Y131990D01*
X220400Y124233D02*
X222500Y126333D01*
X220400Y127497D02*
X222500Y125397D01*
X220400Y121405D02*
X222500Y123505D01*
X220400Y121840D02*
X222500Y119740D01*
X220400Y124668D02*
X222500Y122568D01*
X218885Y117698D02*
X222500Y114083D01*
X220219Y119192D02*
X222500Y116911D01*
X218117Y113465D02*
X222500Y117848D01*
X217001Y115177D02*
X222500Y120677D01*
X216127Y105818D02*
X222500Y112191D01*
X218330Y112596D02*
X222500Y108426D01*
X216600Y125513D02*
Y128487D01*
X216254Y125744D02*
X216600Y126090D01*
Y135513D02*
Y136713D01*
X220400Y120000D02*
Y137500D01*
X215352Y136156D02*
X216254Y137058D01*
X214052Y126370D02*
X215624Y127942D01*
X214573Y127667D02*
X216600Y125640D01*
X217346Y116159D02*
X219841Y118654D01*
X218169Y110689D02*
X222500Y115020D01*
X217471Y116284D02*
X222500Y111255D01*
X210400Y169000D02*
Y169522D01*
X210366Y168643D02*
X212805Y166204D01*
X207296Y164870D02*
X211130Y168704D01*
X208255Y163000D02*
X213000Y167745D01*
X209184Y166997D02*
X211001Y165180D01*
X207820Y159876D02*
X211876Y155820D01*
X208246Y150964D02*
X212964Y146246D01*
X207836Y154095D02*
X211905Y158165D01*
X208214Y143160D02*
X212840Y147786D01*
X207275Y149107D02*
X211106Y145275D01*
X206498Y155586D02*
X210414Y159502D01*
X206472Y158396D02*
X210396Y154472D01*
X207201Y144976D02*
X211024Y148799D01*
X205615Y147939D02*
X209939Y143615D01*
X207346Y165159D02*
X209841Y167654D01*
X207770Y165583D02*
X209884Y163469D01*
X208368Y162156D02*
X209829Y160695D01*
X207588Y159505D02*
X209651Y161568D01*
X204432Y156349D02*
X206495Y158412D01*
X207678Y154361D02*
X209647Y152392D01*
X208366Y151797D02*
X209809Y153241D01*
X204392Y157647D02*
X206361Y155678D01*
X205502Y146104D02*
X209896Y150498D01*
X208355Y142370D02*
X209752Y140973D01*
X202973Y147752D02*
X204370Y146355D01*
X202759Y146191D02*
X204203Y147634D01*
X211113Y137574D02*
X211777Y138237D01*
X210846Y137841D02*
X212560Y136127D01*
X209111Y138400D02*
X210333Y139622D01*
X208713Y134600D02*
X209873Y133440D01*
X208283Y131129D02*
X213129Y126283D01*
X210346Y128341D02*
X212560Y126127D01*
X211770Y126917D02*
X212685Y127832D01*
X210356Y128331D02*
X210922Y128897D01*
X209669Y115600D02*
X210566Y114703D01*
X206478Y115600D02*
X211522D01*
X208366Y112199D02*
X210062Y113895D01*
X207890Y140007D02*
X209636Y141754D01*
X207890Y140007D02*
X209497Y138400D01*
X207763Y134223D02*
X208139Y134600D01*
X208370Y132003D02*
X209840Y133473D01*
X207640Y134600D02*
X209667Y132573D01*
X206478Y138400D02*
X209500D01*
X207513Y134600D02*
X208713D01*
X208096Y128900D02*
X209844Y130648D01*
X207081Y128900D02*
X209000D01*
X207368Y129215D02*
X207683Y128900D01*
X207686Y114348D02*
X208938Y115600D01*
X206841D02*
X209694Y112747D01*
X218353Y102388D02*
X222500Y106534D01*
X218314Y101298D02*
X222500Y97112D01*
X217956Y110142D02*
X222500Y105598D01*
X218247Y90967D02*
X222500Y95221D01*
X218062Y93612D02*
X222500Y98049D01*
X215039Y96245D02*
X222500Y103706D01*
X216896Y95273D02*
X222500Y100877D01*
X214747Y107694D02*
X222500Y99941D01*
X215894Y98061D02*
X222500Y91456D01*
X217457Y99326D02*
X222500Y94284D01*
X218018Y90281D02*
X222500Y85799D01*
X217523Y84587D02*
X222500Y89564D01*
X218289Y92838D02*
X222500Y88627D01*
X218003Y73753D02*
X222500Y78250D01*
X218333Y82569D02*
X222500Y86735D01*
X216814Y88656D02*
X222500Y82970D01*
X215996Y85888D02*
X222500Y92392D01*
X216028Y78128D02*
X222500Y71657D01*
X214875Y76282D02*
X222500Y83907D01*
X217606Y104469D02*
X222500Y109363D01*
X216703Y108566D02*
X222500Y102769D01*
X213848Y106368D02*
X215311Y107831D01*
X214915Y87726D02*
X222500Y80142D01*
X213634Y86355D02*
X215033Y87753D01*
X213465Y97663D02*
X214838Y96289D01*
X211652Y95686D02*
X213612Y97647D01*
X218339Y81475D02*
X222500Y77313D01*
X216788Y75366D02*
X222500Y81078D01*
X213687Y77641D02*
X215098Y76230D01*
X217543Y79441D02*
X222500Y74485D01*
X210988Y78052D02*
X211413Y78477D01*
X212403Y76638D02*
X213431Y77667D01*
X210720Y78320D02*
X212830Y76211D01*
X218230Y73098D02*
X222500Y68828D01*
X218076Y70423D02*
X222500Y66000D01*
X218301Y71222D02*
X222500Y75422D01*
X215078Y67765D02*
X222500Y60343D01*
X216922Y68750D02*
X222500Y63171D01*
X211652Y58916D02*
X222500Y69765D01*
X213340Y57776D02*
X222500Y66936D01*
X209450Y59543D02*
X222500Y72593D01*
X214609Y56217D02*
X222500Y64108D01*
X211777Y68237D02*
X222500Y57514D01*
X215415Y51366D02*
X222500Y58451D01*
X215552Y53148D02*
X222500Y46201D01*
X215398Y54178D02*
X222500Y61279D01*
X220020Y39000D02*
X222500Y41480D01*
X217191Y39000D02*
X222500Y44309D01*
X214285Y48759D02*
X222500Y40544D01*
X215241Y50631D02*
X222500Y43372D01*
X211534Y39000D02*
X222500Y49966D01*
X214363Y39000D02*
X222500Y47137D01*
X214827Y55840D02*
X215236Y54855D01*
X215317Y54587D02*
X215525Y53541D01*
X214103Y56974D02*
X214696Y56087D01*
X215552Y52197D02*
Y52730D01*
Y53263D01*
X210837Y59254D02*
X211822Y58846D01*
X209523Y59543D02*
X210569Y59335D01*
X213172Y57944D02*
X213926Y57190D01*
X212069Y58714D02*
X212955Y58122D01*
X215317Y50872D02*
X215525Y51918D01*
X214827Y49619D02*
X215236Y50605D01*
X214103Y48486D02*
X214696Y49373D01*
X212909Y47307D02*
X221215Y39000D01*
X213172Y47516D02*
X213926Y48270D01*
X212069Y46746D02*
X212955Y47338D01*
X210837Y46206D02*
X211822Y46614D01*
X211080Y46307D02*
X218387Y39000D01*
X209523Y45917D02*
X210569Y46125D01*
X208314Y111299D02*
X213299Y106314D01*
X208117Y103465D02*
X212534Y107883D01*
X207457Y109327D02*
X211327Y105457D01*
X208018Y100281D02*
X212281Y96018D01*
X207606Y94469D02*
X211531Y98394D01*
X207001Y105177D02*
X210823Y108999D01*
X205894Y108061D02*
X210061Y103894D01*
X205198Y106203D02*
X209797Y110802D01*
X206814Y98656D02*
X210656Y94814D01*
X206127Y95818D02*
X210182Y99873D01*
X208339Y91474D02*
X213474Y86339D01*
X208063Y83612D02*
X212388Y87937D01*
X208353Y92388D02*
X210314Y94348D01*
X209058Y78950D02*
X210112Y80004D01*
X207543Y89442D02*
X211441Y85543D01*
X205039Y86245D02*
X209755Y90961D01*
X206896Y85273D02*
X210727Y89104D01*
X206028Y88129D02*
X210128Y84028D01*
X208290Y102838D02*
X209662Y101465D01*
X204915Y97726D02*
X209727Y92915D01*
X208169Y100689D02*
X209632Y102152D01*
X203465Y107662D02*
X204838Y106290D01*
X202105Y105938D02*
X203801Y107634D01*
X203848Y96368D02*
X205311Y97831D01*
X208230Y83098D02*
X209641Y81687D01*
X208247Y80967D02*
X209645Y82365D01*
X208076Y80423D02*
X209584Y78915D01*
X207130Y78950D02*
X209200D01*
X203687Y87641D02*
X205098Y86230D01*
X208193Y74650D02*
X209765Y73078D01*
X208309Y74650D02*
X209789Y73170D01*
X208333Y72569D02*
X209362Y73597D01*
X207626Y69560D02*
X222500Y54686D01*
X208357Y71657D02*
X210237Y69778D01*
X206158Y68199D02*
X222500Y51857D01*
X206153Y59074D02*
X214778Y67699D01*
X183250Y39000D02*
X212247Y67997D01*
X180421Y39000D02*
X210634Y69212D01*
X177593Y39000D02*
X209718Y71125D01*
X208706Y39000D02*
X222500Y52794D01*
X208178Y45889D02*
X209245D01*
X208178Y59571D02*
X209245D01*
X205877Y39000D02*
X222500Y55623D01*
X208670Y45889D02*
X215559Y39000D01*
X203898Y67631D02*
X222500Y49029D01*
X203049Y39000D02*
X210075Y46026D01*
X186530Y65200D02*
X212730Y39000D01*
X183702Y65200D02*
X209902Y39000D01*
X207475Y74650D02*
X208309D01*
X202047Y66653D02*
X209130Y59571D01*
X206854Y59335D02*
X207900Y59543D01*
X200498Y65374D02*
X206613Y59259D01*
X197844Y65200D02*
X204740Y58304D01*
X180873Y65200D02*
X207073Y39000D01*
X178045Y65200D02*
X204245Y39000D01*
X205601Y58846D02*
X206586Y59254D01*
X204468Y58122D02*
X205354Y58714D01*
X204468Y47338D02*
X205354Y46746D01*
X206854Y46125D02*
X207900Y45917D01*
X205601Y46614D02*
X206586Y46206D01*
X203497Y57190D02*
X204251Y57944D01*
X203497Y48270D02*
X204251Y47516D01*
X200221Y39000D02*
X207264Y46043D01*
X197392Y39000D02*
X205224Y46832D01*
X186902Y180793D02*
X198504Y169191D01*
X186705Y178163D02*
X197090Y167777D01*
X186395Y175644D02*
X195676Y166363D01*
X198699Y160512D02*
X202964Y156246D01*
X197284Y159098D02*
X201107Y155275D01*
X184428Y167457D02*
X199689Y182718D01*
X182630Y162831D02*
X200012Y180213D01*
X185999Y173211D02*
X194262Y164949D01*
X179126Y156498D02*
X201239Y178612D01*
X186327Y143900D02*
X201130Y158704D01*
X195870Y157683D02*
X199939Y153615D01*
X193042Y154855D02*
X202007Y145890D01*
X194456Y156269D02*
X199752Y150973D01*
X197640Y143900D02*
X201905Y148164D01*
X191983Y143900D02*
X199651Y151568D01*
X191628Y153441D02*
X200479Y144589D01*
X190213Y152026D02*
X198340Y143900D01*
X189155D02*
X203000Y157745D01*
X188799Y150612D02*
X195511Y143900D01*
X185169Y169751D02*
X186017Y173286D01*
X185452Y170930D02*
X192848Y163534D01*
X185169Y169751D02*
X186017Y173286D01*
X184837Y168717D02*
X191433Y162120D01*
X184143Y166582D02*
X190019Y160706D01*
X184015Y166186D02*
X185138Y169643D01*
X184015Y166186D02*
X185138Y169643D01*
X182585Y162723D02*
X183976Y166081D01*
X183343Y164553D02*
X188605Y159292D01*
X182585Y162723D02*
X183976Y166081D01*
X180888Y159382D02*
X182538Y162621D01*
X182507Y162561D02*
X187191Y157878D01*
X180888Y159382D02*
X182538Y162621D01*
X181553Y160687D02*
X185776Y156463D01*
X180565Y158847D02*
X184362Y155049D01*
X178934Y156185D02*
X180833Y159284D01*
X178934Y156185D02*
X180833Y159284D01*
X179490Y157093D02*
X182948Y153635D01*
X178363Y155392D02*
X181534Y152221D01*
X194812Y143900D02*
X200414Y149502D01*
X199154Y134600D02*
X199998Y133756D01*
X196326Y134600D02*
X199698Y131228D01*
X199611Y128900D02*
X200333Y129622D01*
X181294Y141696D02*
X199952Y160354D01*
X184500Y143900D02*
X200064D01*
X179962Y141775D02*
X199661Y161474D01*
X188975Y128900D02*
X200919D01*
X194675Y134600D02*
X200487D01*
X198355Y115600D02*
X200061Y113894D01*
X192699Y115600D02*
X202281Y106018D01*
X195527Y115600D02*
X199662Y111465D01*
X189870Y115600D02*
X200656Y104814D01*
X187042Y115600D02*
X199726Y102915D01*
X184213Y115600D02*
X203474Y96339D01*
X179087Y115600D02*
X201522D01*
X181385D02*
X201442Y95543D01*
X178822Y115335D02*
X200129Y94028D01*
X187385Y149198D02*
X192683Y143900D01*
X185971Y147784D02*
X189855Y143900D01*
X184556Y146370D02*
X187026Y143900D01*
X183142Y144955D02*
X184219Y143879D01*
X181728Y143541D02*
X182541Y142728D01*
X180314Y142127D02*
X180649Y141792D01*
X181465Y141652D02*
X183154Y143341D01*
X193954Y128900D02*
X199654Y134600D01*
X192672Y132597D02*
X196369Y128900D01*
X191258Y131183D02*
X193541Y128900D01*
X196782D02*
X199636Y131754D01*
X194086Y134011D02*
X199198Y128900D01*
X191126D02*
X196826Y134600D01*
X189843Y129769D02*
X190712Y128900D01*
X177408Y113920D02*
X199641Y91687D01*
X188975Y128900D02*
X194675Y134600D01*
X176735Y153151D02*
X178871Y156092D01*
X177173Y153753D02*
X180120Y150806D01*
X176735Y153151D02*
X178871Y156092D01*
X175914Y152183D02*
X178705Y149392D01*
X174611Y150658D02*
X177291Y147978D01*
X165913Y136600D02*
X199873Y170560D01*
X174304Y150299D02*
X176665Y153063D01*
X174304Y150299D02*
X176665Y153063D01*
X162056Y136600D02*
X203166Y177710D01*
X164884Y136600D02*
X199673Y171388D01*
X171658Y147646D02*
X174228Y150216D01*
X173226Y149214D02*
X175877Y146564D01*
X171658Y147646D02*
X174228Y150216D01*
X171812Y147800D02*
X174463Y145150D01*
X170302Y146482D02*
X173048Y143735D01*
X168812Y145209D02*
X171576Y147570D01*
X168812Y145209D02*
X171576Y147570D01*
X168770Y145186D02*
X171634Y142321D01*
X167139Y143988D02*
X170220Y140907D01*
X165783Y143003D02*
X168723Y145140D01*
X165783Y143003D02*
X168723Y145140D01*
X162590Y141041D02*
X165690Y142941D01*
X165484Y142815D02*
X168806Y139493D01*
X163730Y141740D02*
X167392Y138079D01*
X162590Y141041D02*
X165690Y142941D01*
X159253Y139336D02*
X162492Y140987D01*
X159253Y139336D02*
X162492Y140987D01*
X161938Y140704D02*
X165977Y136664D01*
X155793Y137898D02*
X159151Y139289D01*
X155793Y137898D02*
X159151Y139289D01*
X156399Y136600D02*
X159044Y139245D01*
X152231Y136736D02*
X155688Y137859D01*
X156122Y138034D02*
X157556Y136600D01*
X153571D02*
X154417Y137447D01*
X151682Y136600D02*
X165913D01*
X152231Y136736D02*
X155688Y137859D01*
X151682Y136600D02*
X152123Y136706D01*
X151682Y136600D02*
X152123Y136706D01*
X175993Y112506D02*
X202423Y86076D01*
X174579Y111092D02*
X200750Y84922D01*
X157784Y81416D02*
X191968Y115600D01*
X157903Y73050D02*
X200453Y115600D01*
X160731Y73050D02*
X199630Y111949D01*
X155165Y84454D02*
X186311Y115600D01*
X156832Y83293D02*
X189139Y115600D01*
X152851Y84968D02*
X183482Y115600D01*
X155075Y73050D02*
X197625Y115600D01*
X152246Y73050D02*
X194796Y115600D01*
X169460Y78950D02*
X200256Y109746D01*
X170314Y109700D02*
X200237Y79777D01*
X173034Y109809D02*
X199765Y83078D01*
X167486Y109700D02*
X198236Y78950D01*
X164657Y109700D02*
X195407Y78950D01*
X156172Y109700D02*
X186922Y78950D01*
X153344Y109700D02*
X184094Y78950D01*
X161829Y109700D02*
X192579Y78950D01*
X159001Y109700D02*
X189751Y78950D01*
X159228Y136600D02*
X165376Y142749D01*
X173746Y110259D02*
X179087Y115600D01*
X160064Y139749D02*
X163213Y136600D01*
X158122Y138863D02*
X160385Y136600D01*
X154013Y137315D02*
X154728Y136600D01*
X152441Y87387D02*
X180654Y115600D01*
X144859Y109700D02*
X175609Y78950D01*
X151146Y88920D02*
X171925Y109700D01*
X150515D02*
X181265Y78950D01*
X149107Y89710D02*
X169097Y109700D01*
X147687D02*
X178437Y78950D01*
X142030Y109700D02*
X172780Y78950D01*
X139202Y109700D02*
X169952Y78950D01*
X136373Y109700D02*
X167416Y78657D01*
X133545Y109700D02*
X165952Y77293D01*
X130717Y109700D02*
X164538Y75879D01*
X201652Y85686D02*
X203612Y87647D01*
X201297Y65903D02*
X203114Y67720D01*
X194916Y78950D02*
X200314Y84348D01*
X172288Y78950D02*
X201652Y108314D01*
X168500Y78950D02*
X200870D01*
X180773D02*
X200823Y98999D01*
X183602Y78950D02*
X202535Y97883D01*
X192087Y78950D02*
X201531Y88394D01*
X202727Y56087D02*
X203320Y56974D01*
X202187Y54855D02*
X202595Y55840D01*
X201898Y53541D02*
X202106Y54587D01*
X201898Y51918D02*
X202106Y50872D01*
X201871Y52730D02*
Y53263D01*
X195015Y65200D02*
X203288Y56927D01*
X192187Y65200D02*
X202288Y55099D01*
X201871Y52197D02*
Y52730D01*
X189359Y65200D02*
X201871Y52688D01*
X175117Y78950D02*
X200062Y103895D01*
X177945Y78950D02*
X199797Y100802D01*
X186430Y78950D02*
X199632Y92152D01*
X189259Y78950D02*
X200182Y89873D01*
X197744Y78950D02*
X199755Y80961D01*
X157820Y79768D02*
X163124Y74464D01*
X161709Y73050D02*
X166980Y78320D01*
X156933Y77826D02*
X161709Y73050D01*
X162327Y52018D02*
X175509Y65200D01*
X165155Y52018D02*
X178337Y65200D01*
X161943Y52018D02*
X170057D01*
Y51263D02*
X183994Y65200D01*
X167984Y52018D02*
X181166Y65200D01*
X156622Y51970D02*
X169852Y65200D01*
X155418D02*
X168599Y52018D01*
X158576Y51095D02*
X172680Y65200D01*
X161943Y51634D02*
X162327Y52018D01*
X171936Y39000D02*
X198136Y65200D01*
X172388D02*
X198588Y39000D01*
X170057Y48435D02*
X186822Y65200D01*
X174765Y39000D02*
X203431Y67667D01*
X175216Y65200D02*
X201416Y39000D01*
X161074Y65200D02*
X187274Y39000D01*
X166731Y65200D02*
X192931Y39000D01*
X158246Y65200D02*
X184446Y39000D01*
X169560Y65200D02*
X195760Y39000D01*
X169108D02*
X195308Y65200D01*
X202727Y49373D02*
X203320Y48486D01*
X194564Y39000D02*
X203665Y48102D01*
X202187Y50605D02*
X202595Y49619D01*
X191735Y39000D02*
X202525Y49790D01*
X188907Y39000D02*
X201898Y51991D01*
X186078Y39000D02*
X202367Y55288D01*
X170057Y45606D02*
X189651Y65200D01*
X166279Y39000D02*
X192479Y65200D01*
X163903D02*
X190103Y39000D01*
X170057Y43903D02*
Y52018D01*
Y47732D02*
X178789Y39000D01*
X161943Y43903D02*
Y52018D01*
X170057Y50560D02*
X181617Y39000D01*
X170057Y44903D02*
X175961Y39000D01*
X159718Y49586D02*
X161943Y47361D01*
X159866Y46729D02*
X161943Y48805D01*
X159770Y49461D02*
X161943Y51634D01*
X158708Y44939D02*
X164647Y39000D01*
X159836Y46639D02*
X161943Y44533D01*
X163451Y39000D02*
X168354Y43903D01*
X161943D02*
X170057D01*
X162572D02*
X167475Y39000D01*
X168229Y43903D02*
X173132Y39000D01*
X165401Y43903D02*
X170304Y39000D01*
X160623D02*
X165526Y43903D01*
X161943Y44533D02*
X162572Y43903D01*
X157794Y39000D02*
X162697Y43903D01*
X156830Y43989D02*
X161819Y39000D01*
X155322Y76609D02*
X158881Y73050D01*
X147738Y81365D02*
X149443Y79660D01*
X147441Y79558D02*
X149181Y81299D01*
X152809Y76294D02*
X156053Y73050D01*
X152512Y73763D02*
X153224Y73050D01*
X152103D02*
X161709D01*
X147518Y59837D02*
X152881Y65200D01*
X146103Y61250D02*
X150053Y65200D01*
X150347Y57008D02*
X158538Y65200D01*
X148932Y58422D02*
X155710Y65200D01*
X143761Y73050D02*
X144695Y73985D01*
X140932Y73050D02*
X144591Y76709D01*
X135275Y73050D02*
X145229Y83004D01*
X138104Y73050D02*
X146763Y81709D01*
X132447Y73050D02*
X144440Y85043D01*
X135618Y65200D02*
X138918Y61900D01*
X132790Y65200D02*
X136090Y61900D01*
X141275Y65200D02*
X144578Y61897D01*
X143924Y61900D02*
X147224Y65200D01*
X141096Y61900D02*
X144396Y65200D01*
X135439Y61900D02*
X138739Y65200D01*
X132611Y61900D02*
X135911Y65200D01*
X138447D02*
X141747Y61900D01*
X138268D02*
X141568Y65200D01*
X153175Y54180D02*
X164195Y65200D01*
X154589Y52766D02*
X167024Y65200D01*
X151761Y55594D02*
X161367Y65200D01*
X152589D02*
X165771Y52018D01*
X144104Y65200D02*
X157626Y51678D01*
X149761Y65200D02*
X162943Y52018D01*
X146158Y61197D02*
X155384Y51971D01*
X146932Y65200D02*
X161943Y50190D01*
X143466Y57100D02*
X151990Y48577D01*
X154966Y39000D02*
X161943Y45977D01*
X152137Y39000D02*
X157232Y44095D01*
X150057Y47933D02*
X158990Y39000D01*
X149406Y45756D02*
X156162Y39000D01*
X146480D02*
X152865Y45385D01*
X143652Y39000D02*
X151990Y47339D01*
X149309Y39000D02*
X154499Y44191D01*
X147938Y44396D02*
X153333Y39000D01*
X147776Y51609D02*
X148367Y52200D01*
X149307Y50312D02*
X149781Y50786D01*
X145294Y51956D02*
X146952Y53614D01*
X140890Y57100D02*
X145972Y52018D01*
X138062Y57100D02*
X143795Y51367D01*
X135233Y57100D02*
X142435Y49898D01*
X132405Y57100D02*
X141964Y47540D01*
X150049Y48225D02*
X151195Y49371D01*
X145580Y43925D02*
X150505Y39000D01*
X135167D02*
X142352Y46185D01*
X132338Y39000D02*
X142004Y48666D01*
X140823Y39000D02*
X145735Y43912D01*
X137995Y39000D02*
X143649Y44654D01*
X129264Y295000D02*
X143411Y280853D01*
X129620Y271042D02*
X153578Y295000D01*
X126436D02*
X142260Y279176D01*
X126792Y271042D02*
X150750Y295000D01*
X123963Y271042D02*
X147922Y295000D01*
X123607D02*
X142036Y276571D01*
X121135Y271042D02*
X145093Y295000D01*
X117078Y278298D02*
X133780Y295000D01*
X120779D02*
X144737Y271042D01*
X118307D02*
X142265Y295000D01*
X118314Y273877D02*
X139436Y295000D01*
X117950D02*
X141909Y271042D01*
X118178Y276570D02*
X136608Y295000D01*
X116240Y271042D02*
X146648D01*
X129738Y266242D02*
X132080Y263900D01*
X115122Y295000D02*
X139080Y271042D01*
X115338Y279387D02*
X130951Y295000D01*
X112294D02*
X136252Y271042D01*
X109465Y295000D02*
X133423Y271042D01*
X112617Y279494D02*
X128123Y295000D01*
X118442Y274709D02*
X122110Y271042D01*
X117761Y272562D02*
X119281Y271042D01*
X109821D02*
X110505Y271725D01*
X103808Y295000D02*
X127767Y271042D01*
X106637Y295000D02*
X130595Y271042D01*
X104165D02*
X109309Y276186D01*
X106993Y271042D02*
X109416Y273465D01*
X122478Y263900D02*
X124820Y266242D01*
X125307Y263900D02*
X127649Y266242D01*
X121253D02*
X123595Y263900D01*
X128135D02*
X130477Y266242D01*
X126910D02*
X129252Y263900D01*
X107111Y266242D02*
X109452Y263900D01*
X105508D02*
X107850Y266242D01*
X119650Y263900D02*
X121992Y266242D01*
X118424D02*
X120766Y263900D01*
X128909Y250100D02*
X136609Y242400D01*
X129263D02*
X136963Y250100D01*
X124081Y266242D02*
X126423Y263900D01*
X126081Y250100D02*
X133781Y242400D01*
X123606D02*
X131306Y250100D01*
X116822Y263900D02*
X119164Y266242D01*
X122014Y243637D02*
X128478Y250100D01*
X115596Y266242D02*
X117938Y263900D01*
X123252Y250100D02*
X130953Y242400D01*
X120424Y250100D02*
X128124Y242400D01*
X116983Y244262D02*
X122821Y250100D01*
X119811Y244262D02*
X125649Y250100D01*
X114767D02*
X120605Y244262D01*
X126434Y242400D02*
X134134Y250100D01*
X117596D02*
X125296Y242400D01*
X114490Y244262D02*
X122014D01*
X112175Y245112D02*
X117164Y250100D01*
X113590Y243697D02*
X119992Y250100D01*
X111939D02*
X117777Y244262D01*
X112768Y266242D02*
X115109Y263900D01*
X113993D02*
X116335Y266242D01*
X111165Y263900D02*
X113507Y266242D01*
X110761Y246526D02*
X114335Y250100D01*
X109939Y266242D02*
X112281Y263900D01*
X108336D02*
X110678Y266242D01*
X106282Y250100D02*
X107882Y248500D01*
X104282Y266242D02*
X106624Y263900D01*
X109110Y250100D02*
X114948Y244262D01*
X103454Y250100D02*
X105053Y248500D01*
X109347Y247940D02*
X111507Y250100D01*
X109346Y247941D02*
X114490Y242797D01*
Y244262D01*
X107079Y248500D02*
X108678Y250100D01*
X104250Y248500D02*
X105850Y250100D01*
X107213Y244700D02*
X107693Y244220D01*
X106025Y244700D02*
X106768Y243957D01*
X102480Y277843D02*
X119637Y295000D01*
X103364Y275898D02*
X122466Y295000D01*
X100938Y279129D02*
X116809Y295000D01*
X102567Y272273D02*
X125294Y295000D01*
X100980D02*
X124938Y271042D01*
X98625Y279645D02*
X113980Y295000D01*
X0D02*
X222500D01*
X98151D02*
X113513Y279639D01*
X95323Y295000D02*
X111366Y278958D01*
X89666Y295000D02*
X109181Y275486D01*
X92495Y295000D02*
X109928Y277567D01*
X101240Y271042D02*
X111367D01*
X103413Y275597D02*
X107968Y271042D01*
X103056Y273125D02*
X105139Y271042D01*
X88450Y275126D02*
X108324Y295000D01*
X87825Y277330D02*
X105495Y295000D01*
X89175Y273023D02*
X111152Y295000D01*
X86838D02*
X110796Y271042D01*
X84009Y295000D02*
X99400Y279610D01*
X84442Y279604D02*
X99838Y295000D01*
X81181D02*
X96928Y279253D01*
X86472Y278805D02*
X102667Y295000D01*
X72696D02*
X94534Y273161D01*
X78352Y295000D02*
X95299Y278054D01*
X75524Y295000D02*
X94315Y276209D01*
X75010Y273000D02*
X97010Y295000D01*
X72181Y273000D02*
X94182Y295000D01*
X101857Y271496D02*
X102311Y271042D01*
X95679D02*
X95960Y271323D01*
X92851Y271042D02*
X94674Y272865D01*
X90589Y271608D02*
X94159Y275178D01*
X91155Y271042D02*
X96367D01*
X88104Y276764D02*
X93825Y271042D01*
X101454Y266242D02*
X103796Y263900D01*
X102680D02*
X105021Y266242D01*
X98625D02*
X100967Y263900D01*
X101422Y248500D02*
X103022Y250100D01*
X99851Y263900D02*
X102193Y266242D01*
X90161D02*
X147642D01*
X65429Y263900D02*
X200064D01*
X92387Y250100D02*
X144033D01*
X98593Y248500D02*
X100193Y250100D01*
X97797D02*
X99397Y248500D01*
X101293Y242715D02*
X103279Y244700D01*
X103197D02*
X105199Y242698D01*
X100625Y250100D02*
X102225Y248500D01*
X102013Y240606D02*
X106107Y244700D01*
X100368D02*
X104491Y240578D01*
X94352Y248500D02*
X108000D01*
X95139Y244700D02*
X107213D01*
X99716Y243966D02*
X100450Y244700D01*
X95797Y266242D02*
X98139Y263900D01*
X97023D02*
X99365Y266242D01*
X94194Y263900D02*
X96536Y266242D01*
X95765Y248500D02*
X97365Y250100D01*
X94968D02*
X96568Y248500D01*
X91366Y263900D02*
X93708Y266242D01*
X92969D02*
X95310Y263900D01*
X90140Y266242D02*
X92482Y263900D01*
X88675Y244238D02*
X94536Y250100D01*
X75546Y233259D02*
X92387Y250100D01*
X97540Y244700D02*
X97987Y244253D01*
X96952Y244031D02*
X97622Y244700D01*
X94925Y244486D02*
X95942Y243470D01*
X92263Y249976D02*
X93817Y248423D01*
X90849Y248562D02*
X92238Y247173D01*
X91892Y241453D02*
X95139Y244700D01*
X89205Y244140D02*
X93006Y247941D01*
X122014Y242400D02*
X143050D01*
X127339Y234700D02*
X127839Y234200D01*
X126720D02*
X127220Y234700D01*
X130167D02*
X130667Y234200D01*
X129548D02*
X130048Y234700D01*
X122014Y242853D02*
X122467Y242400D01*
X114300Y234700D02*
X200563D01*
X122014Y242400D02*
Y244262D01*
X121063Y234200D02*
X121563Y234700D01*
X118234Y234200D02*
X118734Y234700D01*
X124510D02*
X125010Y234200D01*
X129968Y229467D02*
X133558Y230036D01*
X123891Y234200D02*
X124391Y234700D01*
X129968Y229467D02*
X133558Y230036D01*
X128810Y230400D02*
X129783Y229427D01*
X121682Y234700D02*
X122182Y234200D01*
X118853Y234700D02*
X119353Y234200D01*
X107239D02*
X192900D01*
X106452Y230400D02*
X192113D01*
X111972Y239941D02*
X112400Y239513D01*
X111709Y239016D02*
X112400Y238325D01*
X111688Y238967D02*
X112317Y239596D01*
X110450Y237447D02*
X113697Y234200D01*
X112400Y236600D02*
Y239513D01*
X104251Y237188D02*
X105270Y238206D01*
X102837Y238602D02*
X104497Y240262D01*
X107080Y234359D02*
X109785Y237064D01*
X105666Y235773D02*
X106887Y236994D01*
X112577Y234200D02*
X113339Y234961D01*
X116025Y234700D02*
X116525Y234200D01*
X115406D02*
X115906Y234700D01*
X109749Y234200D02*
X112400Y236851D01*
X108330Y236739D02*
X110868Y234200D01*
X126915Y228738D02*
X128577Y230400D01*
X126323Y228596D02*
X129858Y229445D01*
X125982Y230400D02*
X127502Y228879D01*
X122807Y227458D02*
X125748Y230400D01*
X123153D02*
X125289Y228265D01*
X117497Y230400D02*
X121125Y226771D01*
X120325Y230400D02*
X123154Y227571D01*
X114668Y230400D02*
X119133Y225935D01*
X117751Y225231D02*
X122920Y230400D01*
X110202Y220511D02*
X120091Y230400D01*
X126323Y228596D02*
X129858Y229445D01*
X122758Y227443D02*
X126216Y228566D01*
X122758Y227443D02*
X126216Y228566D01*
X119295Y226013D02*
X122653Y227404D01*
X119295Y226013D02*
X122653Y227404D01*
X115954Y224316D02*
X119193Y225966D01*
X115954Y224316D02*
X119193Y225966D01*
X115954Y140987D02*
X119193Y139336D01*
X115954Y140987D02*
X119193Y139336D01*
X111840Y230400D02*
X117259Y224981D01*
X112757Y222361D02*
X115856Y224261D01*
X112757Y222361D02*
X115856Y224261D01*
X109723Y220163D02*
X112664Y222299D01*
X109723Y220163D02*
X112664Y222299D01*
X106160Y230422D02*
X113665Y222918D01*
X109011Y230400D02*
X115419Y223993D01*
X106871Y217732D02*
X109635Y220093D01*
X106871Y217732D02*
X109635Y220093D01*
X104218Y215086D02*
X106788Y217656D01*
X109723Y145140D02*
X112664Y143003D01*
X109723Y145140D02*
X112664Y143003D01*
X106871Y147570D02*
X109635Y145209D01*
X112757Y142941D02*
X115856Y141041D01*
X112757Y142941D02*
X115856Y141041D01*
X104218Y215086D02*
X106788Y217656D01*
X104218Y150216D02*
X106788Y147646D01*
X106871Y147570D02*
X109635Y145209D01*
X104218Y150216D02*
X106788Y147646D01*
X102005Y240235D02*
X108040Y234200D01*
X101892Y239547D02*
X107239Y234200D01*
X96666Y237088D02*
X111964Y221791D01*
X99205Y236860D02*
X105106Y230959D01*
X91767Y239159D02*
X110326Y220601D01*
X90565Y237533D02*
X108756Y219342D01*
X82364Y240077D02*
X105786Y216654D01*
X80950Y238663D02*
X104372Y215240D01*
X79536Y237248D02*
X103054Y213730D01*
X101781Y212239D02*
X104142Y215004D01*
X101781Y212239D02*
X104142Y215004D01*
X99575Y209210D02*
X101712Y212151D01*
X99575Y209210D02*
X101712Y212151D01*
X97614Y206018D02*
X99513Y209117D01*
X88522Y236748D02*
X107230Y218039D01*
X78121Y235834D02*
X101758Y212198D01*
X76707Y234420D02*
X100560Y210567D01*
X97614Y206018D02*
X99513Y209117D01*
X93511Y243072D02*
X94738Y241845D01*
X92097Y241658D02*
X94840Y238914D01*
X91466Y238544D02*
X94721Y241800D01*
X75269Y233029D02*
X99387Y208912D01*
X72770Y232700D02*
X98312Y207158D01*
X69942Y232700D02*
X97276Y205366D01*
X67113Y232700D02*
X96321Y203492D01*
X64285Y232700D02*
X95435Y201550D01*
X95908Y202681D02*
X97559Y205920D01*
X95908Y202681D02*
X97559Y205920D01*
X94470Y199221D02*
X95862Y202579D01*
X94470Y199221D02*
X95862Y202579D01*
X93308Y195659D02*
X94432Y199116D01*
X61457Y232700D02*
X94607Y199550D01*
X58628Y232700D02*
X93887Y197441D01*
X93308Y195659D02*
X94432Y199116D01*
X55800Y232700D02*
X93214Y195285D01*
X25648Y234567D02*
X94708Y165507D01*
X94470Y166081D02*
X95862Y162723D01*
X93308Y169643D02*
X94432Y166186D01*
X22207Y232352D02*
X103451Y151108D01*
X25035Y232352D02*
X97095Y160292D01*
X0Y141421D02*
X96037Y237459D01*
X0Y138593D02*
X98146Y236739D01*
X0Y144250D02*
X94786Y239036D01*
X10853Y138132D02*
X104393Y231672D01*
X8454Y138562D02*
X102979Y233086D01*
X99575Y156092D02*
X101712Y153151D01*
X99575Y156092D02*
X101712Y153151D01*
X97614Y159284D02*
X99513Y156185D01*
X101781Y153063D02*
X104142Y150299D01*
X101781Y153063D02*
X104142Y150299D01*
X95908Y162621D02*
X97559Y159382D01*
X94470Y166081D02*
X95862Y162723D01*
X97614Y159284D02*
X99513Y156185D01*
X95908Y162621D02*
X97559Y159382D01*
X92429Y192016D02*
X93278Y195551D01*
X92429Y192016D02*
X93278Y195551D01*
X52971Y232700D02*
X92667Y193005D01*
X91839Y188316D02*
X92407Y191906D01*
X91839Y188316D02*
X92407Y191906D01*
X50143Y232700D02*
X92206Y190637D01*
X28047Y240653D02*
X91862Y176838D01*
X25648Y237396D02*
X93273Y169770D01*
X26633Y239239D02*
X92394Y173478D01*
X91839Y176986D02*
X92407Y173396D01*
X92429Y173286D02*
X93278Y169751D01*
X91839Y176986D02*
X92407Y173396D01*
X93308Y169643D02*
X94432Y166186D01*
X92429Y173286D02*
X93278Y169751D01*
X91540Y184581D02*
X91826Y188205D01*
X91540Y184581D02*
X91826Y188205D01*
X91540Y180722D02*
X91826Y177098D01*
X91540Y180722D02*
X91826Y177098D01*
X64254Y276386D02*
X82868Y295000D01*
X69867D02*
X85567Y279300D01*
X67039Y295000D02*
X82560Y279479D01*
X69353Y273000D02*
X91353Y295000D01*
X66525Y273000D02*
X88525Y295000D01*
X63479Y278440D02*
X80039Y295000D01*
X64210D02*
X80726Y278484D01*
X64021Y287467D02*
X71554Y295000D01*
X61382D02*
X79537Y276845D01*
X58553Y295000D02*
X79200Y274353D01*
X63888Y284505D02*
X74383Y295000D01*
X62825Y289100D02*
X68726Y295000D01*
X64247Y286478D02*
X77725Y273000D01*
X60790Y289893D02*
X65897Y295000D01*
X61860Y279649D02*
X77211Y295000D01*
X52897D02*
X58542Y289354D01*
X55725Y295000D02*
X60836Y289889D01*
X50068Y295000D02*
X57172Y287896D01*
X47240Y295000D02*
X56805Y285435D01*
X20670Y280886D02*
X34784Y295000D01*
X44411D02*
X59613Y279798D01*
X20296Y283340D02*
X31956Y295000D01*
X41583D02*
X57810Y278772D01*
X38754Y295000D02*
X56822Y276933D01*
X58954Y279572D02*
X62137Y282754D01*
X20670Y280543D02*
Y281076D01*
Y281610D01*
X20435Y282934D02*
X20643Y281888D01*
X20435Y279219D02*
X20643Y280265D01*
X19946Y277966D02*
X20354Y278951D01*
X63713Y284184D02*
X74897Y273000D01*
X77838D02*
X79199Y274361D01*
X64156Y275255D02*
X66411Y273000D01*
X88315Y273882D02*
X91155Y271042D01*
X78409Y273000D02*
X79291Y273882D01*
X62255Y282814D02*
X72068Y273000D01*
X59793Y282447D02*
X69240Y273000D01*
X63696D02*
X85696Y295000D01*
X63131Y273452D02*
X63583Y273000D01*
X84921Y270488D02*
X88464Y266945D01*
X81100Y268903D02*
X82686Y270488D01*
X83156Y270397D02*
X89653Y263900D01*
X81461Y269264D02*
X86825Y263900D01*
X62570Y273000D02*
X78409D01*
X80052Y263900D02*
X85781Y269629D01*
X77224Y263900D02*
X83677Y270354D01*
X30269Y295000D02*
X52269Y273000D01*
X33098Y295000D02*
X55098Y273000D01*
X27441Y295000D02*
X49441Y273000D01*
X35926Y295000D02*
X57926Y273000D01*
X46726Y273000D02*
X57542Y283817D01*
X24612Y295000D02*
X46616Y272996D01*
X21816Y256576D02*
X60240Y295000D01*
X21784D02*
X44767Y272017D01*
X23788Y255719D02*
X63069Y295000D01*
X25095Y254198D02*
X56749Y285852D01*
X49554Y273000D02*
X59175Y282621D01*
X52382Y273000D02*
X57070Y277688D01*
X55211Y273000D02*
X56992Y274781D01*
X46745Y273000D02*
X58430D01*
X20615Y282026D02*
X37696Y264946D01*
X26440Y253690D02*
X45048Y272297D01*
X20461Y279352D02*
X36282Y263531D01*
X13559Y287917D02*
X20642Y295000D01*
X16037Y287566D02*
X23471Y295000D01*
X13296Y287917D02*
X14363D01*
X19312Y285184D02*
X29128Y295000D01*
X17890Y286591D02*
X26299Y295000D01*
X0Y282843D02*
X12157Y295000D01*
X7642D02*
X14780Y287862D01*
X4813Y295000D02*
X12105Y287708D01*
X0Y277186D02*
X17814Y295000D01*
X0Y280014D02*
X14986Y295000D01*
X18290Y286291D02*
X19044Y285537D01*
X19221Y285320D02*
X19814Y284434D01*
X17187Y287060D02*
X18073Y286468D01*
X19946Y284187D02*
X20354Y283202D01*
X19221Y276832D02*
X19814Y277719D01*
X14641Y287890D02*
X15687Y287682D01*
X11972D02*
X13018Y287890D01*
X15955Y287600D02*
X16940Y287192D01*
X10719D02*
X11704Y287600D01*
X0Y288500D02*
X6500Y295000D01*
X1985D02*
X10144Y286841D01*
X0Y291328D02*
X3672Y295000D01*
X9586Y286468D02*
X10472Y287060D01*
X8615Y285537D02*
X9369Y286291D01*
X0Y285671D02*
X9329Y295000D01*
X0Y294157D02*
X8618Y285539D01*
X0Y294157D02*
X843Y295000D01*
X0Y291328D02*
X7546Y283782D01*
X0Y288500D02*
X6989Y281511D01*
X7845Y284434D02*
X8438Y285320D01*
X7305Y283202D02*
X7713Y284187D01*
X7016Y281888D02*
X7224Y282934D01*
X7845Y277719D02*
X8438Y276832D01*
X7305Y278951D02*
X7713Y277966D01*
X6989Y280543D02*
X6989Y281076D01*
Y281610D01*
X0Y285671D02*
X7730Y277941D01*
X7016Y280265D02*
X7224Y279219D01*
X16127Y295000D02*
X41939Y269188D01*
X18956Y295000D02*
X43353Y270602D01*
X13299Y295000D02*
X40525Y267774D01*
X0Y248902D02*
X46098Y295000D01*
X0Y251730D02*
X43270Y295000D01*
X0Y246073D02*
X48927Y295000D01*
X0Y243245D02*
X51755Y295000D01*
X0Y254559D02*
X40441Y295000D01*
X0Y237588D02*
X57412Y295000D01*
X0Y240417D02*
X54584Y295000D01*
X19594Y277391D02*
X34868Y262117D01*
X18292Y275864D02*
X33454Y260703D01*
X16535Y274793D02*
X32039Y259289D01*
X14264Y274236D02*
X30625Y257875D01*
X10695Y274977D02*
X29211Y256460D01*
X10470Y295000D02*
X39110Y266360D01*
X0Y257387D02*
X37613Y295000D01*
X0Y282843D02*
X27797Y255046D01*
X0Y280014D02*
X26383Y253631D01*
X18290Y275862D02*
X19044Y276616D01*
X17187Y275092D02*
X18073Y275685D01*
X8615Y276616D02*
X9369Y275862D01*
X9586Y275685D02*
X10472Y275092D01*
X0Y271529D02*
X7339Y278869D01*
X0Y268701D02*
X8315Y277016D01*
X0Y274358D02*
X6989Y281346D01*
X0Y277186D02*
X20559Y256627D01*
X0Y265872D02*
X9721Y275594D01*
X15955Y274552D02*
X16940Y274960D01*
X14641Y274263D02*
X15687Y274471D01*
X10719Y274960D02*
X11704Y274552D01*
X13296Y274236D02*
X14363D01*
X11972Y274471D02*
X13018Y274263D01*
X0Y260215D02*
X14020Y274236D01*
X0Y263044D02*
X11566Y274610D01*
X0Y274358D02*
X18463Y255894D01*
X0Y271529D02*
X17061Y254468D01*
X79681Y268216D02*
X83997Y263900D01*
X82881D02*
X87195Y268214D01*
X76868Y268200D02*
X81168Y263900D01*
X74395D02*
X78695Y268200D01*
X65554D02*
X69854Y263900D01*
X63649Y268200D02*
X79403D01*
X64255Y265074D02*
X67382Y268200D01*
X74040D02*
X78340Y263900D01*
X65910D02*
X70210Y268200D01*
X88537Y263900D02*
X90879Y266242D01*
X89435Y247148D02*
X90824Y245759D01*
X85709Y263900D02*
X88615Y266806D01*
X68738Y263900D02*
X73038Y268200D01*
X68383D02*
X72683Y263900D01*
X71567D02*
X75867Y268200D01*
X71211D02*
X75511Y263900D01*
X63964Y267611D02*
X64553Y268200D01*
X64220Y266706D02*
X67026Y263900D01*
X64140Y265189D02*
X65429Y263900D01*
X38262Y258723D02*
X42800Y254185D01*
X39676Y260137D02*
X41414Y258399D01*
X30537Y248326D02*
X41133Y258922D01*
X30537Y250999D02*
X40895Y261356D01*
X36848Y257309D02*
X42800Y251357D01*
X35433Y255895D02*
X42800Y248528D01*
X34019Y254480D02*
X42800Y245700D01*
X30537Y245498D02*
X42394Y257355D01*
X24894Y249463D02*
X25737Y248620D01*
Y245131D02*
Y251993D01*
X23468Y248061D02*
X25737Y245792D01*
X88021Y245734D02*
X89410Y244345D01*
X86607Y244320D02*
X86911Y244015D01*
X83778Y241491D02*
X84500Y240770D01*
X30537Y249477D02*
X91824Y188190D01*
X30537Y246649D02*
X91618Y185568D01*
X24357Y202548D02*
X54509Y232700D01*
X29462Y242068D02*
X91603Y179926D01*
X30519Y243839D02*
X91536Y182822D01*
Y182651D02*
Y184469D01*
Y182651D02*
Y184469D01*
X50100Y232700D02*
X74200D01*
X91536Y180833D02*
Y182651D01*
Y180833D02*
Y182651D01*
X24613Y197147D02*
X60166Y232700D01*
X22884Y198247D02*
X57337Y232700D01*
X24613Y191490D02*
X65823Y232700D01*
X24613Y194318D02*
X62994Y232700D01*
X32605Y253066D02*
X42800Y242871D01*
X30537Y244137D02*
Y250999D01*
X42800Y240000D02*
Y257094D01*
X31191Y251652D02*
X42800Y240043D01*
X25648Y238254D02*
X29834Y242440D01*
X22254Y241648D02*
X25737Y245131D01*
X25648Y234952D02*
X42800Y252104D01*
X25648Y237780D02*
X42800Y254932D01*
X43359Y238654D02*
X48754Y233259D01*
X23260Y207108D02*
X49123Y232971D01*
X25648Y232352D02*
Y238254D01*
X24377Y205396D02*
X51680Y232700D01*
X24613Y189753D02*
Y198247D01*
X18202Y241648D02*
X25737Y249183D01*
X21336Y247364D02*
X24653Y244047D01*
X0Y265872D02*
X23239Y242633D01*
X0Y206475D02*
X42800Y249275D01*
X0Y263044D02*
X21396Y241648D01*
X21031D02*
X25737Y246355D01*
X16352Y232352D02*
X25648D01*
X16352Y241648D02*
X22254D01*
X21434Y208110D02*
X47668Y234345D01*
X18063Y207567D02*
X46254Y235759D01*
X0Y209304D02*
X23048Y232352D01*
X0Y226274D02*
X21078Y247353D01*
X0Y200818D02*
X42800Y243618D01*
X0Y203647D02*
X42800Y246447D01*
X0Y234760D02*
X16424Y251184D01*
X0Y248902D02*
X16352Y232550D01*
Y232352D02*
Y241648D01*
X0Y229103D02*
X18802Y247905D01*
X0Y231931D02*
X17281Y249212D01*
X0Y268701D02*
X16364Y252336D01*
X0Y260215D02*
X18567Y241648D01*
X0Y257387D02*
X16352Y241035D01*
X0Y251730D02*
X16352Y235378D01*
X0Y254559D02*
X16352Y238207D01*
X0Y229103D02*
X20889Y208214D01*
X0Y226274D02*
X18473Y207801D01*
X0Y214961D02*
X17391Y232352D01*
X0Y223446D02*
X16939Y206507D01*
X0Y220618D02*
X16146Y204471D01*
X0Y220618D02*
X16352Y236969D01*
X0Y223446D02*
X16352Y239798D01*
X0Y212132D02*
X20220Y232352D01*
X0Y217789D02*
X16352Y234141D01*
X0Y164049D02*
X68651Y232700D01*
X0Y161221D02*
X71479Y232700D01*
X0Y192333D02*
X44840Y237173D01*
X0Y149907D02*
X87034Y236941D01*
X0Y158392D02*
X74311Y232703D01*
X0Y155564D02*
X84514Y240077D01*
X0Y195162D02*
X43426Y238587D01*
X0Y197990D02*
X42800Y240790D01*
X0Y147078D02*
X90208Y237286D01*
X0Y152735D02*
X85359Y238094D01*
X20055Y198247D02*
X21819Y200010D01*
X20838Y199780D02*
X22371Y198247D01*
X16120D02*
X24613D01*
X16120Y189753D02*
X24613D01*
X0Y166877D02*
X22876Y189753D01*
X0Y189505D02*
X16799Y206304D01*
X17227Y198247D02*
X18970Y199990D01*
X0Y206475D02*
X16120Y190356D01*
X0Y183848D02*
X17258Y201106D01*
X0Y186676D02*
X16256Y202933D01*
X0Y217789D02*
X19543Y198247D01*
X0Y214961D02*
X16714Y198247D01*
X0Y209304D02*
X16120Y193184D01*
X0Y212132D02*
X16120Y196012D01*
Y190356D02*
X16722Y189753D01*
X16120D02*
Y198247D01*
X0Y178191D02*
X16120Y194311D01*
X0Y181019D02*
X16120Y197139D01*
X0Y172534D02*
X17219Y189753D01*
X0Y175363D02*
X16120Y191482D01*
X0Y169706D02*
X20048Y189753D01*
X0Y147078D02*
X8509Y138569D01*
X119295Y139289D02*
X122653Y137898D01*
X122758Y137859D02*
X126216Y136736D01*
X119295Y139289D02*
X122653Y137898D01*
X122079Y138136D02*
X123615Y136600D01*
X119630D02*
X121433Y138404D01*
X107680Y146879D02*
X117959Y136600D01*
X113973D02*
X117547Y140175D01*
X111144Y136600D02*
X115688Y141144D01*
X116864Y140523D02*
X120787Y136600D01*
X116801D02*
X119433Y139232D01*
X122758Y137859D02*
X126216Y136736D01*
X126323Y136706D02*
X126764Y136600D01*
X125286D02*
X125617Y136931D01*
X126639Y109700D02*
X172400D01*
X126323Y136706D02*
X126764Y136600D01*
X117482Y97682D02*
X129499Y109700D01*
X122458Y136600D02*
X123482Y137624D01*
X119973Y97346D02*
X132327Y109700D01*
X115950Y99011D02*
X117317Y97644D01*
X99830Y136600D02*
X108990Y145760D01*
X99830Y136600D02*
X108990Y145760D01*
X97002Y136600D02*
X107465Y147063D01*
X105487Y136600D02*
X112216Y143328D01*
X102659Y136600D02*
X110578Y144519D01*
X85688Y136600D02*
X101952Y152863D01*
X88517Y136600D02*
X103254Y151338D01*
X82860Y136600D02*
X100743Y154484D01*
X94174Y136600D02*
X106004Y148430D01*
X91345Y136600D02*
X104590Y149845D01*
X108316Y136600D02*
X113935Y142219D01*
X94046Y129400D02*
X95579Y127866D01*
X91217Y129400D02*
X94165Y126452D01*
X88389Y129400D02*
X92751Y125038D01*
X85561Y129400D02*
X91337Y123624D01*
X82959Y115246D02*
X97113Y129400D01*
X82732D02*
X89923Y122210D01*
X126790Y73050D02*
X163440Y109700D01*
X129619Y73050D02*
X166269Y109700D01*
X127888D02*
X147917Y89671D01*
X123962Y73050D02*
X160612Y109700D01*
X121133Y73050D02*
X157783Y109700D01*
X109820Y73050D02*
X146470Y109700D01*
X112648Y73050D02*
X149298Y109700D01*
X106991Y73050D02*
X143641Y109700D01*
X118305Y73050D02*
X154955Y109700D01*
X115477Y73050D02*
X152127Y109700D01*
X125849Y108910D02*
X145976Y88784D01*
X124435Y107496D02*
X144759Y87172D01*
X123021Y106082D02*
X144514Y84589D01*
X121607Y104668D02*
X146912Y79362D01*
X121896Y93065D02*
X141911Y73050D01*
X120193Y103253D02*
X145324Y78122D01*
X118778Y101839D02*
X144465Y76152D01*
X117364Y100425D02*
X144739Y73050D01*
X105064Y73951D02*
X140813Y109700D01*
X121445Y95989D02*
X135156Y109700D01*
X114536Y97597D02*
X115533Y96600D01*
X113121Y96182D02*
X114563Y94740D01*
X122004Y93719D02*
X137984Y109700D01*
X111892Y94953D02*
X126639Y109700D01*
X111898Y94928D02*
X126671Y109700D01*
X99407Y79608D02*
X114569Y94770D01*
X82400Y91000D02*
Y113900D01*
X111517Y92130D02*
X130597Y73050D01*
X120852Y91281D02*
X139082Y73050D01*
X111982Y94494D02*
X133425Y73050D01*
X100821Y78193D02*
X114907Y92279D01*
X18465Y137259D02*
X111606Y230400D01*
X21293Y137259D02*
X114434Y230400D01*
X12808Y137259D02*
X106003Y230454D01*
X19378Y232352D02*
X115130Y136600D01*
X16550Y232352D02*
X112302Y136600D01*
X0Y240417D02*
X103816Y136600D01*
X0Y234760D02*
X98160Y136600D01*
X0Y231931D02*
X95331Y136600D01*
X0Y246073D02*
X109473Y136600D01*
X0Y243245D02*
X106645Y136600D01*
X71546D02*
X96468Y161522D01*
X54187Y136600D02*
X126764D01*
X68718D02*
X95562Y163445D01*
X77203Y136600D02*
X98477Y157874D01*
X74375Y136600D02*
X97423Y159648D01*
X24122Y137259D02*
X117263Y230400D01*
X15637Y137259D02*
X108777Y230400D01*
X26950Y137259D02*
X101364Y211673D01*
X29779Y137259D02*
X96643Y204124D01*
X35436Y137259D02*
X93136Y194959D01*
X38264Y137259D02*
X92313Y191308D01*
X41092Y137259D02*
X91807Y187974D01*
X32607Y137259D02*
X94416Y199068D01*
X24613Y196005D02*
X84017Y136600D01*
X24580Y204522D02*
X92503Y136600D01*
X24167Y202107D02*
X89674Y136600D01*
X22873Y200573D02*
X86846Y136600D01*
X24613Y193176D02*
X81189Y136600D01*
X24613Y190348D02*
X78361Y136600D01*
X57404D02*
X92751Y171947D01*
X60232Y136600D02*
X93305Y169672D01*
X54576Y136600D02*
X92266Y174290D01*
X65889Y136600D02*
X94734Y165445D01*
X63061Y136600D02*
X93994Y167533D01*
X43921Y137259D02*
X91566Y184904D01*
X46749Y137259D02*
X91536Y182046D01*
X52406Y137259D02*
X91879Y176732D01*
X49578Y137259D02*
X91650Y179331D01*
X80031Y136600D02*
X99559Y156127D01*
X52806Y129400D02*
X97113D01*
X57359Y91300D02*
X95459Y129400D01*
X54530Y91300D02*
X92630Y129400D01*
X54530Y91300D02*
X92630Y129400D01*
X0Y237588D02*
X100988Y136600D01*
X0Y132936D02*
X101564Y234501D01*
X0Y135765D02*
X100150Y235915D01*
X51702Y91300D02*
X89802Y129400D01*
X39075Y133459D02*
X83158Y89376D01*
X77075Y129400D02*
X87094Y119381D01*
X79904Y129400D02*
X88508Y120795D01*
X74247Y129400D02*
X85680Y117967D01*
X71418Y129400D02*
X84266Y116553D01*
X80891Y89376D02*
X82403Y90889D01*
X68590Y129400D02*
X82856Y115134D01*
X57276Y129400D02*
X82400Y104276D01*
X48874Y91300D02*
X86974Y129400D01*
X46045Y91300D02*
X84145Y129400D01*
X62933D02*
X82400Y109933D01*
X60105Y129400D02*
X82400Y107105D01*
X65762Y129400D02*
X82400Y112762D01*
X52313Y128707D02*
X82400Y98620D01*
X54448Y129400D02*
X82400Y101448D01*
X47426Y127936D02*
X82400Y92963D01*
X50601Y127590D02*
X82400Y95791D01*
X43217Y91300D02*
X81317Y129400D01*
X36247Y133459D02*
X80330Y89376D01*
X40388Y91300D02*
X78488Y129400D01*
X71501Y91300D02*
X82400Y102199D01*
X77129Y91271D02*
X82400Y96542D01*
X74330Y91300D02*
X82400Y99370D01*
X78787Y90100D02*
X82400Y93714D01*
X63016Y91300D02*
X82400Y110684D01*
X60187Y91300D02*
X82400Y113513D01*
X68673Y91300D02*
X82400Y105027D01*
X65844Y91300D02*
X82400Y107856D01*
X110097Y90721D02*
X127769Y73050D01*
X105964D02*
X145196D01*
X107713Y90276D02*
X124940Y73050D01*
X118992Y90311D02*
X136254Y73050D01*
X124126Y61900D02*
X127426Y65200D01*
X104774Y90387D02*
X122112Y73050D01*
X103649Y75365D02*
X118533Y90248D01*
X102235Y76779D02*
X116263Y90807D01*
X103360Y88973D02*
X119283Y73050D01*
X101946Y87559D02*
X116455Y73050D01*
X118648Y65200D02*
X121948Y61900D01*
X121297D02*
X124597Y65200D01*
X118469Y61900D02*
X121769Y65200D01*
X124305D02*
X127605Y61900D01*
X121476Y65200D02*
X124776Y61900D01*
X116885Y63144D02*
X118940Y65200D01*
X114960Y64048D02*
X116112Y65200D01*
X117981Y61900D02*
X144461D01*
X115820Y65200D02*
X119120Y61900D01*
X100522Y86135D02*
X105041Y90654D01*
X100532Y86145D02*
X113626Y73050D01*
X101113Y70000D02*
X102023Y70910D01*
X97992Y81022D02*
X107325Y90354D01*
X98272Y85576D02*
X110798Y73050D01*
X96578Y82436D02*
X99837Y85695D01*
X98284Y70000D02*
X100609Y72325D01*
X95456Y70000D02*
X99195Y73739D01*
X111505Y63422D02*
X113283Y65200D01*
X112991D02*
X114043Y64148D01*
X110163Y65200D02*
X111779Y63583D01*
X107334Y65200D02*
X110266Y62268D01*
X102335Y62737D02*
X104798Y65200D01*
X98849D02*
X100013Y64036D01*
X97975Y64034D02*
X99141Y65200D01*
X100625Y63855D02*
X101970Y65200D01*
X96021D02*
X97368Y63852D01*
X129782Y61900D02*
X133082Y65200D01*
X129962D02*
X133262Y61900D01*
X126954D02*
X130254Y65200D01*
X129576Y57100D02*
X147676Y39000D01*
X127133Y65200D02*
X130433Y61900D01*
X123853Y39000D02*
X141953Y57100D01*
X117981D02*
X143466D01*
X121091D02*
X139191Y39000D01*
X126748Y57100D02*
X144848Y39000D01*
X123919Y57100D02*
X142019Y39000D01*
X118263Y57100D02*
X136363Y39000D01*
X121025D02*
X139125Y57100D01*
X118196Y39000D02*
X136296Y57100D01*
X129510Y39000D02*
X145538Y55028D01*
X126681Y39000D02*
X144124Y56443D01*
X114787Y54919D02*
X130706Y39000D01*
X112539D02*
X130639Y57100D01*
X116768Y55766D02*
X133534Y39000D01*
X115368D02*
X133468Y57100D01*
X104506Y65200D02*
X109419Y60287D01*
X103466Y58211D02*
X110455Y65200D01*
X103406Y60980D02*
X107626Y65200D01*
X103536Y60513D02*
X125049Y39000D01*
X101677Y65200D02*
X127877Y39000D01*
X103352Y57868D02*
X122221Y39000D01*
X104054D02*
X122154Y57100D01*
X102232Y56160D02*
X119392Y39000D01*
X101225D02*
X119325Y57100D01*
X109711Y39000D02*
X127811Y57100D01*
X106882Y39000D02*
X124982Y57100D01*
X97697Y55038D02*
X113735Y39000D01*
X95569D02*
X111915Y55346D01*
X100472Y55091D02*
X116564Y39000D01*
X98397D02*
X114256Y54859D01*
X95164Y83850D02*
X96890Y85576D01*
X93438D02*
X99176D01*
X93750Y85264D02*
X94061Y85576D01*
X95443D02*
X107969Y73050D01*
X93438Y85576D02*
X105964Y73050D01*
X83801Y83076D02*
X96877Y70000D01*
X86630Y83076D02*
X99706Y70000D01*
X80973Y83076D02*
X94049Y70000D01*
X89857Y83076D02*
X102933Y70000D01*
X89458Y83076D02*
X102534Y70000D01*
X92628D02*
X97780Y75153D01*
X92100Y70000D02*
X102933D01*
X93094Y65200D02*
X199600D01*
X93192D02*
X95660Y62732D01*
X80518Y66376D02*
X93538Y79396D01*
X79104Y67790D02*
X92124Y80810D01*
X83947Y64148D02*
X96366Y76567D01*
X81932Y64962D02*
X94952Y77981D01*
X82959Y89654D02*
X83237Y89376D01*
X79511D02*
X83237D01*
X78146Y90741D02*
X79511Y89376D01*
X78145Y83076D02*
X91343Y69877D01*
X76275Y70619D02*
X88733Y83076D01*
X75316D02*
X89749Y68643D01*
X33116Y83076D02*
X89857D01*
X74861Y72033D02*
X85905Y83076D01*
X72488D02*
X88335Y67229D01*
X69659Y83076D02*
X86920Y65815D01*
X77690Y69204D02*
X90709Y82224D01*
X73447Y73447D02*
X83076Y83076D01*
X85118Y64012D02*
X90403Y69297D01*
X66831Y83076D02*
X85506Y64400D01*
X72033Y74861D02*
X80248Y83076D01*
X64002D02*
X83032Y64046D01*
X66839Y80055D02*
X82882Y64012D01*
X91729Y63835D02*
X94591Y60972D01*
X90315Y62420D02*
X94538Y58197D01*
X89912Y39000D02*
X109452Y58540D01*
X61169Y74596D02*
X96765Y39000D01*
X87083D02*
X110078Y61995D01*
X70113Y39000D02*
X96313Y65200D01*
X88900Y61006D02*
X110907Y39000D01*
X88546Y58532D02*
X108078Y39000D01*
X86079Y55343D02*
X102421Y39000D01*
X84255D02*
X100289Y55034D01*
X83733Y54860D02*
X99593Y39000D01*
X92740D02*
X110355Y56615D01*
X87640Y56610D02*
X105250Y39000D01*
X0D02*
X222500D01*
X75770D02*
X94645Y57876D01*
X81427Y39000D02*
X97520Y55094D01*
X78598Y39000D02*
X95763Y56165D01*
X88512Y60618D02*
X93094Y65200D01*
X88579Y60295D02*
X93484Y65200D01*
X64262Y75844D02*
X79488Y60618D01*
X64248Y68688D02*
X93936Y39000D01*
X64031Y47061D02*
X78538Y61568D01*
X63711Y66397D02*
X91108Y39000D01*
X63997Y74596D02*
X79360Y59233D01*
X62251Y65028D02*
X88279Y39000D01*
X59787Y64664D02*
X85451Y39000D01*
X72941D02*
X94466Y60525D01*
X67284Y39000D02*
X83205Y54921D01*
X64456Y39000D02*
X81226Y55770D01*
X61628Y39000D02*
X79913Y57286D01*
X58799Y39000D02*
X79352Y59553D01*
X64155Y57467D02*
X82622Y39000D01*
X63128Y55666D02*
X79794Y39000D01*
X22379Y189753D02*
X75532Y136600D01*
X27762Y133459D02*
X69920Y91300D01*
X24933Y133459D02*
X67092Y91300D01*
X33418Y133459D02*
X75577Y91300D01*
X30590Y133459D02*
X72749Y91300D01*
X16722Y189753D02*
X69875Y136600D01*
X19550Y189753D02*
X72704Y136600D01*
X22105Y133459D02*
X64264Y91300D01*
X19276Y133459D02*
X61435Y91300D01*
X16448Y133459D02*
X58607Y91300D01*
X31903D02*
X70003Y129400D01*
X34731Y91300D02*
X72831Y129400D01*
X29075Y91300D02*
X67175Y129400D01*
X37560Y91300D02*
X75660Y129400D01*
X24900Y91300D02*
X76800D01*
X26246D02*
X64346Y129400D01*
X20939Y88822D02*
X61518Y129400D01*
X18539Y89250D02*
X58689Y129400D01*
X44732Y133459D02*
X45690Y132501D01*
X41904Y133459D02*
X46036Y129326D01*
X11943Y137259D02*
X52741D01*
X13619Y133459D02*
X55778Y91300D01*
X12697Y133459D02*
X46152D01*
X12019Y132231D02*
X52950Y91300D01*
X10372Y131049D02*
X50121Y91300D01*
X22430Y87484D02*
X23000Y88054D01*
Y86191D02*
Y89400D01*
X13053Y85942D02*
X15302Y83693D01*
X11826Y88194D02*
X53032Y129400D01*
X9981Y89177D02*
X48348Y127544D01*
X12923Y86463D02*
X55861Y129400D01*
X12675Y83386D02*
X15035Y85746D01*
X66312Y80454D02*
X68934Y83076D01*
X67790Y79104D02*
X71762Y83076D01*
X64262Y81233D02*
X66106Y83076D01*
X70619Y76275D02*
X77419Y83076D01*
X69204Y77690D02*
X74591Y83076D01*
X61174D02*
X62129Y82120D01*
X62321D02*
X63277Y83076D01*
X59493Y82120D02*
X60449Y83076D01*
X12710Y83456D02*
X57167Y39000D01*
X44203Y83076D02*
X57021Y70258D01*
X58346Y83076D02*
X59301Y82120D01*
X56738D02*
X64262D01*
X55517Y83076D02*
X56738Y81855D01*
X64262Y80758D02*
Y82120D01*
X52689Y83076D02*
X56738Y79027D01*
X47032Y83076D02*
X58539Y71569D01*
X49860Y83076D02*
X56738Y76198D01*
X17526Y81469D02*
X59995Y39000D01*
X44802Y70258D02*
X57620Y83076D01*
X38546D02*
X51364Y70258D01*
X39145D02*
X51963Y83076D01*
X36823Y70764D02*
X49135Y83076D01*
X41974Y70258D02*
X54792Y83076D01*
X41375D02*
X54193Y70258D01*
X23000Y80000D02*
Y84261D01*
X35409Y72178D02*
X46306Y83076D01*
X35718D02*
X48536Y70258D01*
X35409Y72178D02*
X46306Y83076D01*
X33116Y81200D02*
X34993Y83076D01*
X56738Y74596D02*
Y82120D01*
X33116Y81169D02*
Y83076D01*
Y82849D02*
X45707Y70258D01*
X33994Y73593D02*
X43478Y83076D01*
X31166Y76421D02*
X37821Y83076D01*
X22106Y82546D02*
X23000Y81652D01*
X11415Y81923D02*
X54338Y39000D01*
X32580Y75007D02*
X40650Y83076D01*
X0Y189505D02*
X52246Y137259D01*
X0Y186676D02*
X49417Y137259D01*
X0Y183848D02*
X46589Y137259D01*
X0Y181019D02*
X43760Y137259D01*
X0Y178191D02*
X40932Y137259D01*
X0Y203647D02*
X67047Y136600D01*
X0Y200818D02*
X64218Y136600D01*
X0Y197990D02*
X61390Y136600D01*
X0Y195162D02*
X58562Y136600D01*
X0Y192333D02*
X55733Y136600D01*
X0Y101823D02*
X31636Y133459D01*
X0Y98995D02*
X34464Y133459D01*
X0Y104652D02*
X28807Y133459D01*
X0Y93338D02*
X40121Y133459D01*
X0Y96167D02*
X37292Y133459D01*
X0Y175363D02*
X38104Y137259D01*
X0Y172534D02*
X35275Y137259D01*
X0Y169706D02*
X32447Y137259D01*
X0Y166877D02*
X29618Y137259D01*
X0Y164049D02*
X26790Y137259D01*
X0Y161221D02*
X23961Y137259D01*
X0Y155564D02*
X18305Y137259D01*
X0Y158392D02*
X21133Y137259D01*
X0Y152735D02*
X15476Y137259D01*
X0Y149907D02*
X12648Y137259D01*
X0Y144250D02*
X6531Y137719D01*
X0Y138593D02*
X5405Y133188D01*
X0Y141421D02*
X5349Y136072D01*
X0Y124451D02*
X6938Y131389D01*
X0Y121623D02*
X9182Y130804D01*
X0Y127279D02*
X5568Y132847D01*
X0Y115966D02*
X17493Y133459D01*
X0Y118794D02*
X14665Y133459D01*
X0Y113137D02*
X20322Y133459D01*
X0Y130108D02*
X5138Y135246D01*
X0Y107480D02*
X25979Y133459D01*
X0Y110309D02*
X23150Y133459D01*
X0Y135765D02*
X44465Y91300D01*
X7488Y131105D02*
X47293Y91300D01*
X0Y132936D02*
X41636Y91300D01*
X0Y87681D02*
X45778Y133459D01*
X0Y90510D02*
X42949Y133459D01*
X0Y130108D02*
X38808Y91300D01*
X0Y127279D02*
X35979Y91300D01*
X0Y124451D02*
X33151Y91300D01*
X0Y82024D02*
X46581Y128605D01*
X0Y84853D02*
X45594Y130447D01*
X0Y59397D02*
X23000Y82397D01*
X0Y82024D02*
X43024Y39000D01*
X0Y110309D02*
X23000Y87309D01*
X0Y87681D02*
X48681Y39000D01*
X0Y84853D02*
X45853Y39000D01*
X0Y121623D02*
X30322Y91300D01*
X0Y118794D02*
X27494Y91300D01*
X0Y115966D02*
X24678Y91287D01*
X0Y113137D02*
X23107Y90030D01*
X0Y98995D02*
X9775Y89220D01*
X0Y96167D02*
X7289Y88877D01*
X0Y93338D02*
X5756Y87582D01*
X0Y90510D02*
X5011Y85499D01*
X0Y107480D02*
X18274Y89207D01*
X0Y104652D02*
X16379Y88273D01*
X0Y101823D02*
X15236Y86587D01*
X0Y39000D02*
Y295000D01*
Y79196D02*
X5108Y84304D01*
X0Y70711D02*
X10899Y81610D01*
X0Y76368D02*
X6091Y82459D01*
X0Y65054D02*
X16801Y81855D01*
X0Y67882D02*
X15463Y83346D01*
X64262Y80758D02*
X65142D01*
X64023Y69679D02*
X67225Y72881D01*
X64262Y74596D02*
Y75844D01*
X60795Y72109D02*
X63282Y74596D01*
X56738D02*
X64262D01*
X58340D02*
X60830Y72106D01*
X62828Y71314D02*
X65810Y74296D01*
X56116Y70258D02*
X60454Y74596D01*
X63882Y66711D02*
X68639Y71467D01*
X61864Y61864D02*
X70053Y70053D01*
X58964Y61793D02*
X62147Y64976D01*
X64255Y58598D02*
X72881Y67225D01*
X63481Y60653D02*
X71467Y68639D01*
X55164Y66458D02*
X59609Y62013D01*
X52336Y66458D02*
X57808Y60986D01*
X28338Y79249D02*
X30257Y81169D01*
X29752Y77835D02*
X33085Y81169D01*
X26923Y80664D02*
X27428Y81169D01*
X31969D02*
X42879Y70258D01*
X29140Y81169D02*
X40051Y70258D01*
X26800Y80787D02*
Y81169D01*
X33116D01*
X26800Y80787D02*
X37329Y70258D01*
X53288D02*
X57626Y74596D01*
X37329Y70258D02*
X57253D01*
X50459D02*
X56738Y76537D01*
X49507Y66458D02*
X56821Y59145D01*
X47631Y70258D02*
X56738Y79365D01*
X23559Y78654D02*
X35195Y67018D01*
X36542Y66458D02*
X57253D01*
X62714Y51400D02*
X75710Y64396D01*
X63965Y49823D02*
X77124Y62982D01*
X60604Y52119D02*
X74296Y65810D01*
X61286Y54679D02*
X76966Y39000D01*
X46679Y66458D02*
X61058Y52079D01*
X44657Y39000D02*
X60260Y54604D01*
X33343Y39000D02*
X59179Y64836D01*
X64220Y48917D02*
X74137Y39000D01*
X63785Y46524D02*
X71309Y39000D01*
X62381Y45100D02*
X68480Y39000D01*
X60026Y44626D02*
X65652Y39000D01*
X55971D02*
X61797Y44827D01*
X53142Y39000D02*
X59035Y44893D01*
X41022Y66458D02*
X57241Y50239D01*
X43850Y66458D02*
X58666Y51643D01*
X38194Y66458D02*
X56768Y47884D01*
X30515Y39000D02*
X57545Y66030D01*
X36172Y39000D02*
X57065Y59894D01*
X20603Y51715D02*
X35597Y66710D01*
X22029Y39000D02*
X49488Y66458D01*
X20470Y54411D02*
X34136Y68077D01*
X27686Y39000D02*
X55145Y66458D01*
X24858Y39000D02*
X52316Y66458D01*
X39000Y39000D02*
X56994Y56994D01*
X41829Y39000D02*
X58205Y55377D01*
X20670Y52730D02*
Y53263D01*
X50314Y39000D02*
X57458Y46144D01*
X47485Y39000D02*
X56739Y48254D01*
X20670Y52197D02*
Y52730D01*
X20435Y54587D02*
X20643Y53541D01*
X20670Y52869D02*
X34539Y39000D01*
X20435Y50872D02*
X20643Y51918D01*
X16572Y58998D02*
X29893Y72320D01*
X18318Y57916D02*
X31308Y70906D01*
X14316Y59571D02*
X28479Y73734D01*
X19615Y56384D02*
X32722Y69491D01*
X19615Y56384D02*
X32722Y69491D01*
X0Y56569D02*
X23041Y79609D01*
X10793Y58877D02*
X27065Y75148D01*
X0Y62225D02*
X18945Y81170D01*
X0Y50912D02*
X25651Y76562D01*
X0Y53740D02*
X24236Y77977D01*
X19221Y56974D02*
X19814Y56087D01*
X19946Y55840D02*
X20354Y54855D01*
X18290Y57944D02*
X19044Y57190D01*
X19946Y49619D02*
X20354Y50605D01*
X19221Y48486D02*
X19814Y49373D01*
X14641Y59543D02*
X15687Y59335D01*
X13296Y59571D02*
X14363D01*
X17187Y58714D02*
X18073Y58122D01*
X15955Y59254D02*
X16940Y58846D01*
X0Y73539D02*
X13969Y59571D01*
X11972Y59335D02*
X13018Y59543D01*
X0Y70711D02*
X11529Y59181D01*
X10719Y58846D02*
X11704Y59254D01*
X9586Y58122D02*
X10472Y58714D01*
X0Y67882D02*
X9691Y58192D01*
X0Y65054D02*
X8294Y56759D01*
X0Y73539D02*
X7822Y81362D01*
X0Y62225D02*
X7324Y54901D01*
X0Y59397D02*
X6989Y52408D01*
X8615Y57190D02*
X9369Y57944D01*
X7845Y56087D02*
X8438Y56974D01*
X7305Y54855D02*
X7713Y55840D01*
X7845Y49373D02*
X8438Y48486D01*
X7305Y50605D02*
X7713Y49619D01*
X7016Y53541D02*
X7224Y54587D01*
X6989Y52730D02*
Y53263D01*
X7016Y51918D02*
X7224Y50872D01*
X6989Y52197D02*
X6989Y52730D01*
X16373Y39000D02*
X43831Y66458D01*
X19201Y39000D02*
X46659Y66458D01*
X13544Y39000D02*
X41002Y66458D01*
X20420Y81403D02*
X62823Y39000D01*
X20281Y50430D02*
X31711Y39000D01*
X0Y79196D02*
X40196Y39000D01*
X0Y76368D02*
X37368Y39000D01*
X0Y56569D02*
X17569Y39000D01*
X9332Y81178D02*
X51510Y39000D01*
X10716D02*
X38174Y66458D01*
X19291Y48591D02*
X28882Y39000D01*
X18290Y47516D02*
X19044Y48270D01*
X17187Y46746D02*
X18073Y47338D01*
X17859Y47195D02*
X26054Y39000D01*
X16001Y46225D02*
X23225Y39000D01*
X15955Y46206D02*
X16940Y46614D01*
X14641Y45917D02*
X15687Y46125D01*
X13508Y45889D02*
X20397Y39000D01*
X7887D02*
X14844Y45957D01*
X8615Y48270D02*
X9369Y47516D01*
X9586Y47338D02*
X10472Y46746D01*
X0Y48083D02*
X7683Y55766D01*
X0Y53740D02*
X14740Y39000D01*
X0Y45255D02*
X6989Y52244D01*
X0Y39598D02*
X8643Y48241D01*
X0Y42426D02*
X7561Y49987D01*
X0Y50912D02*
X11912Y39000D01*
X0Y48083D02*
X9083Y39000D01*
X11972Y46125D02*
X13018Y45917D01*
X13296Y45889D02*
X14363D01*
X10719Y46614D02*
X11704Y46206D01*
X5059Y39000D02*
X12148Y46089D01*
X2231Y39000D02*
X10175Y46944D01*
X0Y45255D02*
X6255Y39000D01*
X0Y42426D02*
X3426Y39000D01*
X2231D02*
X10175Y46944D01*
X0Y39598D02*
X598Y39000D01*
D38*
X84000Y59500D02*
X92100Y67600D01*
X199600D01*
X204000Y72000D01*
X65142Y78358D02*
X84000Y59500D01*
X60500Y78358D02*
X65142D01*
X21000Y237000D02*
X28137Y244137D01*
Y251993D01*
X46745Y270600D01*
X79403D01*
X83803Y275000D01*
X144461Y59500D02*
X156000Y47961D01*
X114000Y59500D02*
X144461D01*
X147642Y268642D02*
X156500Y277500D01*
X90161Y268642D02*
X147642D01*
X83803Y275000D02*
X90161Y268642D01*
D39*
X29059Y85226D02*
X90748D01*
X105074Y70900D01*
X162600D01*
X168500Y76800D01*
X209200D01*
X214000Y72000D01*
D40*
X20366Y204000D02*
D03*
D41*
Y194000D02*
D03*
D42*
X88252Y240500D02*
D03*
X98252D02*
D03*
X108252D02*
D03*
X60500Y266142D02*
D03*
Y276142D02*
D03*
Y286142D02*
D03*
Y68358D02*
D03*
Y58358D02*
D03*
Y48358D02*
D03*
X118252Y94000D02*
D03*
X108252D02*
D03*
X98252D02*
D03*
D43*
X118252Y240500D02*
D03*
X88252Y94000D02*
D03*
D44*
X60500Y256142D02*
D03*
Y78358D02*
D03*
D45*
X84000Y59500D02*
D03*
X99000D02*
D03*
X114000D02*
D03*
X83803Y275000D02*
D03*
X98803D02*
D03*
X113803D02*
D03*
X21000Y252000D02*
D03*
D46*
X9059Y85226D02*
D03*
X19059D02*
D03*
X156000Y47961D02*
D03*
X146000D02*
D03*
D47*
X29059Y85226D02*
D03*
X166000Y47961D02*
D03*
D48*
X214000Y262000D02*
D03*
Y252000D02*
D03*
Y242000D02*
D03*
Y232000D02*
D03*
Y222000D02*
D03*
Y212000D02*
D03*
Y202000D02*
D03*
Y192000D02*
D03*
Y182000D02*
D03*
Y172000D02*
D03*
Y162000D02*
D03*
Y152000D02*
D03*
Y142000D02*
D03*
Y132000D02*
D03*
Y122000D02*
D03*
Y112000D02*
D03*
Y102000D02*
D03*
Y92000D02*
D03*
Y82000D02*
D03*
Y72000D02*
D03*
X204000Y262000D02*
D03*
Y252000D02*
D03*
Y242000D02*
D03*
Y232000D02*
D03*
Y222000D02*
D03*
Y212000D02*
D03*
Y202000D02*
D03*
Y192000D02*
D03*
Y182000D02*
D03*
Y172000D02*
D03*
Y162000D02*
D03*
Y152000D02*
D03*
Y142000D02*
D03*
Y132000D02*
D03*
Y122000D02*
D03*
Y112000D02*
D03*
Y102000D02*
D03*
Y92000D02*
D03*
Y82000D02*
D03*
Y72000D02*
D03*
D49*
X166500Y286004D02*
D03*
D50*
X176500Y277500D02*
D03*
X166500D02*
D03*
X156500D02*
D03*
X146500D02*
D03*
D51*
X145500Y246000D02*
D03*
X155500D02*
D03*
D52*
X21000Y237000D02*
D03*
D53*
X148650Y85500D02*
D03*
X153650Y80500D02*
D03*
X148650Y75500D02*
D03*
D54*
X9000Y134700D02*
D03*
X51400Y239500D02*
D03*
X180400Y137900D02*
D03*
X44700Y260500D02*
D03*
X49400Y131300D02*
D03*
M02*
