G04*
G04 #@! TF.GenerationSoftware,Altium Limited,Altium Designer,20.2.3 (150)*
G04*
G04 Layer_Color=16711935*
%FSLAX25Y25*%
%MOIN*%
G70*
G04*
G04 #@! TF.SameCoordinates,F15F1335-3D0F-4216-8B18-0C41FCBFB515*
G04*
G04*
G04 #@! TF.FilePolarity,Negative*
G04*
G01*
G75*
%ADD22C,0.06493*%
%ADD23R,0.06493X0.06493*%
%ADD24C,0.05524*%
%ADD25R,0.05524X0.05524*%
%ADD26R,0.05524X0.05524*%
%ADD27C,0.07296*%
%ADD28C,0.06115*%
%ADD29R,0.06115X0.06115*%
%ADD30C,0.06741*%
%ADD31C,0.03359*%
%ADD32C,0.07119*%
%ADD33C,0.06709*%
%ADD34R,0.07296X0.07296*%
%ADD35C,0.06469*%
%ADD36C,0.05800*%
D22*
X20366Y204000D02*
D03*
D23*
Y194000D02*
D03*
D24*
X88252Y240500D02*
D03*
X98252D02*
D03*
X108252D02*
D03*
X60500Y266142D02*
D03*
Y276142D02*
D03*
Y286142D02*
D03*
Y68358D02*
D03*
Y58358D02*
D03*
Y48358D02*
D03*
X118252Y94000D02*
D03*
X108252D02*
D03*
X98252D02*
D03*
D25*
X118252Y240500D02*
D03*
X88252Y94000D02*
D03*
D26*
X60500Y256142D02*
D03*
Y78358D02*
D03*
D27*
X84000Y59500D02*
D03*
X99000D02*
D03*
X114000D02*
D03*
X83803Y275000D02*
D03*
X98803D02*
D03*
X113803D02*
D03*
X21000Y252000D02*
D03*
D28*
X9059Y85226D02*
D03*
X19059D02*
D03*
X156000Y47961D02*
D03*
X146000D02*
D03*
D29*
X29059Y85226D02*
D03*
X166000Y47961D02*
D03*
D30*
X214000Y262000D02*
D03*
Y252000D02*
D03*
Y242000D02*
D03*
Y232000D02*
D03*
Y222000D02*
D03*
Y212000D02*
D03*
Y202000D02*
D03*
Y192000D02*
D03*
Y182000D02*
D03*
Y172000D02*
D03*
Y162000D02*
D03*
Y152000D02*
D03*
Y142000D02*
D03*
Y132000D02*
D03*
Y122000D02*
D03*
Y112000D02*
D03*
Y102000D02*
D03*
Y92000D02*
D03*
Y82000D02*
D03*
Y72000D02*
D03*
X204000Y262000D02*
D03*
Y252000D02*
D03*
Y242000D02*
D03*
Y232000D02*
D03*
Y222000D02*
D03*
Y212000D02*
D03*
Y202000D02*
D03*
Y192000D02*
D03*
Y182000D02*
D03*
Y172000D02*
D03*
Y162000D02*
D03*
Y152000D02*
D03*
Y142000D02*
D03*
Y132000D02*
D03*
Y122000D02*
D03*
Y112000D02*
D03*
Y102000D02*
D03*
Y92000D02*
D03*
Y82000D02*
D03*
Y72000D02*
D03*
D31*
X166500Y286004D02*
D03*
D32*
X176500Y277500D02*
D03*
X166500D02*
D03*
X156500D02*
D03*
X146500D02*
D03*
D33*
X145500Y246000D02*
D03*
X155500D02*
D03*
D34*
X21000Y237000D02*
D03*
D35*
X148650Y85500D02*
D03*
X153650Y80500D02*
D03*
X148650Y75500D02*
D03*
D36*
X9000Y134700D02*
D03*
X51400Y239500D02*
D03*
X180400Y137900D02*
D03*
X44700Y260500D02*
D03*
X49400Y131300D02*
D03*
M02*
